<svg width="66" height="65" viewBox="0 0 66 65" fill="none" xmlns="http://www.w3.org/2000/svg">
<g clip-path="url(#clip0_974_558)">
<path d="M64.7181 22.1009L41.7162 0.346538C41.4802 0.125126 41.1692 0.00195313 40.8461 0.00195312C40.523 0.00195312 40.212 0.125126 39.976 0.346538L16.9699 22.1009C16.7749 22.2713 16.6374 22.4983 16.5764 22.7504C16.5154 23.0026 16.534 23.2675 16.6295 23.5087C16.725 23.7498 16.8927 23.9553 17.1096 24.0967C17.3264 24.2381 17.5816 24.3085 17.8401 24.2981H24.5429C24.8741 24.2981 25.1918 24.4301 25.426 24.6651C25.6602 24.9001 25.7918 25.2189 25.7918 25.5512V49.3816C25.7918 49.714 25.9234 50.0327 26.1577 50.2677C26.3919 50.5027 26.7096 50.6348 27.0408 50.6348H54.5847C54.916 50.6348 55.2337 50.5027 55.4679 50.2677C55.7021 50.0327 55.8337 49.714 55.8337 49.3816V25.5679C55.8337 25.2356 55.9653 24.9168 56.1995 24.6818C56.4338 24.4468 56.7514 24.3148 57.0827 24.3148H63.7855C64.0533 24.3451 64.3236 24.2878 64.5562 24.1513C64.7888 24.0148 64.9712 23.8065 65.0761 23.5574C65.181 23.3084 65.2028 23.032 65.1383 22.7695C65.0738 22.507 64.9263 22.2725 64.7181 22.1009Z" fill="url(#paint0_linear_974_558)"/>
<path d="M48.373 40.4971H41.6702C41.339 40.4971 41.0213 40.365 40.7871 40.13C40.5528 39.895 40.4213 39.5763 40.4213 39.2439V15.3968C40.424 15.2305 40.3938 15.0653 40.3322 14.9109C40.2707 14.7564 40.1791 14.6158 40.0629 14.4972C39.9466 14.3786 39.808 14.2844 39.6551 14.2202C39.5022 14.1559 39.3381 14.1228 39.1723 14.1228H11.595C11.4293 14.1228 11.2651 14.1559 11.1122 14.2202C10.9593 14.2844 10.8207 14.3786 10.7044 14.4972C10.5882 14.6158 10.4966 14.7564 10.4351 14.9109C10.3736 15.0653 10.3433 15.2305 10.3461 15.3968V39.2272C10.3461 39.5596 10.2145 39.8783 9.98026 40.1133C9.74603 40.3483 9.42834 40.4804 9.0971 40.4804H2.39429C2.13624 40.4709 1.88162 40.542 1.66547 40.6837C1.44932 40.8254 1.28226 41.0309 1.1873 41.2718C1.09234 41.5128 1.07416 41.7773 1.13523 42.029C1.19631 42.2808 1.33364 42.5073 1.52834 42.6775L24.5344 64.4277C24.7673 64.6536 25.0785 64.7799 25.4024 64.7799C25.7263 64.7799 26.0375 64.6536 26.2704 64.4277L49.2765 42.6775C49.4676 42.5039 49.6006 42.2751 49.657 42.0227C49.7134 41.7702 49.6905 41.5064 49.5916 41.2675C49.4926 41.0285 49.3223 40.8262 49.1041 40.6883C48.8859 40.5504 48.6306 40.4836 48.373 40.4971Z" fill="url(#paint1_linear_974_558)"/>
<path d="M48.373 40.4971H41.6702C41.339 40.4971 41.0213 40.365 40.7871 40.13C40.5528 39.895 40.4213 39.5763 40.4213 39.2439V15.3968C40.424 15.2305 40.3938 15.0653 40.3322 14.9109C40.2707 14.7564 40.1791 14.6158 40.0629 14.4972C39.9466 14.3786 39.808 14.2844 39.6551 14.2202C39.5022 14.1559 39.3381 14.1228 39.1723 14.1228H11.595C11.4293 14.1228 11.2651 14.1559 11.1122 14.2202C10.9593 14.2844 10.8207 14.3786 10.7044 14.4972C10.5882 14.6158 10.4966 14.7564 10.4351 14.9109C10.3736 15.0653 10.3433 15.2305 10.3461 15.3968V39.2272C10.3461 39.5596 10.2145 39.8783 9.98026 40.1133C9.74603 40.3483 9.42834 40.4804 9.0971 40.4804H2.39429C2.13624 40.4709 1.88162 40.542 1.66547 40.6837C1.44932 40.8254 1.28226 41.0309 1.1873 41.2718C1.09234 41.5128 1.07416 41.7773 1.13523 42.029C1.19631 42.2808 1.33364 42.5073 1.52834 42.6775L24.5344 64.4277C24.7673 64.6536 25.0785 64.7799 25.4024 64.7799C25.7263 64.7799 26.0375 64.6536 26.2704 64.4277L49.2765 42.6775C49.4676 42.5039 49.6006 42.2751 49.657 42.0227C49.7134 41.7702 49.6905 41.5064 49.5916 41.2675C49.4926 41.0285 49.3223 40.8262 49.1041 40.6883C48.8859 40.5504 48.6306 40.4836 48.373 40.4971Z" fill="url(#paint2_linear_974_558)"/>
<g opacity="0.5">
<path d="M48.373 40.4971H41.6702C41.339 40.4971 41.0213 40.365 40.7871 40.13C40.5528 39.895 40.4213 39.5763 40.4213 39.2439V15.3968C40.424 15.2305 40.3938 15.0653 40.3322 14.9109C40.2707 14.7564 40.1791 14.6158 40.0629 14.4972C39.9466 14.3786 39.808 14.2844 39.6551 14.2202C39.5022 14.1559 39.3381 14.1228 39.1723 14.1228H11.595C11.4293 14.1228 11.2651 14.1559 11.1122 14.2202C10.9593 14.2844 10.8207 14.3786 10.7044 14.4972C10.5882 14.6158 10.4966 14.7564 10.4351 14.9109C10.3736 15.0653 10.3433 15.2305 10.3461 15.3968V39.2272C10.3461 39.5596 10.2145 39.8783 9.98026 40.1133C9.74603 40.3483 9.42834 40.4804 9.0971 40.4804H2.39429C2.13624 40.4709 1.88162 40.542 1.66547 40.6837C1.44932 40.8254 1.28226 41.0309 1.1873 41.2718C1.09234 41.5128 1.07416 41.7773 1.13523 42.029C1.19631 42.2808 1.33364 42.5073 1.52834 42.6775L24.5344 64.4277C24.7673 64.6536 25.0785 64.7799 25.4024 64.7799C25.7263 64.7799 26.0375 64.6536 26.2704 64.4277L49.2765 42.6775C49.4676 42.5039 49.6006 42.2751 49.657 42.0227C49.7134 41.7702 49.6905 41.5064 49.5916 41.2675C49.4926 41.0285 49.3223 40.8262 49.1041 40.6883C48.8859 40.5504 48.6306 40.4836 48.373 40.4971Z" fill="url(#paint3_linear_974_558)"/>
</g>
<path d="M48.373 40.4971H41.6702C41.339 40.4971 41.0213 40.365 40.7871 40.13C40.5528 39.895 40.4213 39.5763 40.4213 39.2439V15.3968C40.424 15.2305 40.3938 15.0653 40.3322 14.9109C40.2707 14.7564 40.1791 14.6158 40.0629 14.4972C39.9466 14.3786 39.808 14.2844 39.6551 14.2202C39.5022 14.1559 39.3381 14.1228 39.1723 14.1228H11.595C11.4293 14.1228 11.2651 14.1559 11.1122 14.2202C10.9593 14.2844 10.8207 14.3786 10.7044 14.4972C10.5882 14.6158 10.4966 14.7564 10.4351 14.9109C10.3736 15.0653 10.3433 15.2305 10.3461 15.3968V39.2272C10.3461 39.5596 10.2145 39.8783 9.98026 40.1133C9.74603 40.3483 9.42834 40.4804 9.0971 40.4804H2.39429C2.13624 40.4709 1.88162 40.542 1.66547 40.6837C1.44932 40.8254 1.28226 41.0309 1.1873 41.2718C1.09234 41.5128 1.07416 41.7773 1.13523 42.029C1.19631 42.2808 1.33364 42.5073 1.52834 42.6775L24.5344 64.4277C24.7673 64.6536 25.0785 64.7798 25.4024 64.7798C25.7263 64.7798 26.0375 64.6536 26.2704 64.4277L49.2765 42.6775C49.4676 42.5039 49.6006 42.2751 49.657 42.0227C49.7134 41.7702 49.6905 41.5064 49.5916 41.2675C49.4926 41.0285 49.3223 40.8262 49.1041 40.6883C48.8859 40.5503 48.6306 40.4836 48.373 40.4971V40.4971Z" stroke="url(#paint4_linear_974_558)" stroke-miterlimit="10"/>
<g opacity="0.5">
<path d="M48.373 40.4971H41.6702C41.339 40.4971 41.0213 40.365 40.7871 40.13C40.5528 39.895 40.4213 39.5763 40.4213 39.2439V15.3968C40.424 15.2305 40.3938 15.0653 40.3322 14.9109C40.2707 14.7564 40.1791 14.6158 40.0629 14.4972C39.9466 14.3786 39.808 14.2844 39.6551 14.2202C39.5022 14.1559 39.3381 14.1228 39.1723 14.1228H11.595C11.4293 14.1228 11.2651 14.1559 11.1122 14.2202C10.9593 14.2844 10.8207 14.3786 10.7044 14.4972C10.5882 14.6158 10.4966 14.7564 10.4351 14.9109C10.3736 15.0653 10.3433 15.2305 10.3461 15.3968V39.2272C10.3461 39.5596 10.2145 39.8783 9.98026 40.1133C9.74603 40.3483 9.42834 40.4804 9.0971 40.4804H2.39429C2.13624 40.4709 1.88162 40.542 1.66547 40.6837C1.44932 40.8254 1.28226 41.0309 1.1873 41.2718C1.09234 41.5128 1.07416 41.7773 1.13523 42.029C1.19631 42.2808 1.33364 42.5073 1.52834 42.6775L24.5344 64.4277C24.7673 64.6536 25.0785 64.7798 25.4024 64.7798C25.7263 64.7798 26.0375 64.6536 26.2704 64.4277L49.2765 42.6775C49.4676 42.5039 49.6006 42.2751 49.657 42.0227C49.7134 41.7702 49.6905 41.5064 49.5916 41.2675C49.4926 41.0285 49.3223 40.8262 49.1041 40.6883C48.8859 40.5503 48.6306 40.4836 48.373 40.4971V40.4971Z" stroke="url(#paint5_linear_974_558)" stroke-miterlimit="10"/>
</g>
</g>
<defs>
<linearGradient id="paint0_linear_974_558" x1="30.7586" y1="4.5863" x2="52.7813" y2="51.6563" gradientUnits="userSpaceOnUse">
<stop stop-color="#1F3DDE"/>
<stop offset="0.4" stop-color="#1F3DDE" stop-opacity="0.31"/>
<stop offset="0.69" stop-color="#1F3DDE" stop-opacity="0.71"/>
<stop offset="0.87" stop-color="#1F3DDE" stop-opacity="0.69"/>
<stop offset="1" stop-color="#1F3DDE"/>
</linearGradient>
<linearGradient id="paint1_linear_974_558" x1="13.5434" y1="13.0827" x2="35.5662" y2="60.1527" gradientUnits="userSpaceOnUse">
<stop stop-color="white" stop-opacity="0.6"/>
<stop offset="0.25" stop-color="white" stop-opacity="0.39"/>
<stop offset="0.52" stop-color="white" stop-opacity="0.18"/>
<stop offset="0.72" stop-color="white" stop-opacity="0.05"/>
<stop offset="0.83" stop-color="white" stop-opacity="0"/>
</linearGradient>
<linearGradient id="paint2_linear_974_558" x1="13.5434" y1="13.0827" x2="35.5662" y2="60.1527" gradientUnits="userSpaceOnUse">
<stop stop-color="white" stop-opacity="0.6"/>
<stop offset="0.25" stop-color="white" stop-opacity="0.39"/>
<stop offset="0.52" stop-color="white" stop-opacity="0.18"/>
<stop offset="0.72" stop-color="white" stop-opacity="0.05"/>
<stop offset="0.83" stop-color="white" stop-opacity="0"/>
</linearGradient>
<linearGradient id="paint3_linear_974_558" x1="25.3935" y1="14.1228" x2="25.3935" y2="64.7799" gradientUnits="userSpaceOnUse">
<stop stop-color="#1934C1" stop-opacity="0.83"/>
<stop offset="1" stop-color="#1934C1" stop-opacity="0"/>
</linearGradient>
<linearGradient id="paint4_linear_974_558" x1="13.5434" y1="13.0827" x2="35.5662" y2="60.1527" gradientUnits="userSpaceOnUse">
<stop stop-color="white"/>
<stop offset="0.22" stop-color="#F1F4FF"/>
<stop offset="0.64" stop-color="#CED9FF"/>
<stop offset="1" stop-color="#AABDFF"/>
</linearGradient>
<linearGradient id="paint5_linear_974_558" x1="25.3935" y1="14.1228" x2="25.3935" y2="64.7799" gradientUnits="userSpaceOnUse">
<stop stop-color="#1934C1"/>
<stop offset="1" stop-color="#1934C1" stop-opacity="0.23"/>
</linearGradient>
<clipPath id="clip0_974_558">
<rect width="64.2262" height="65" fill="white" transform="translate(0.886902)"/>
</clipPath>
</defs>
</svg>
