<svg width="64" height="65" viewBox="0 0 64 65" fill="none" xmlns="http://www.w3.org/2000/svg">
<g clip-path="url(#clip0_974_55)">
<path d="M55.5531 22.5208V23.2417L56.2284 22.989L59.6869 21.6948C59.6874 21.6946 59.6879 21.6944 59.6884 21.6942C60.0364 21.5672 60.41 21.5258 60.7774 21.5736C61.1454 21.6216 61.4964 21.7575 61.8006 21.97C62.1048 22.1825 62.3533 22.4652 62.5249 22.7942C62.6966 23.1232 62.7863 23.4887 62.7866 23.8598V54.7509C62.7866 55.3646 62.5427 55.9532 62.1087 56.3872C61.6747 56.8212 61.0861 57.0651 60.4724 57.0651H10.8605C10.2467 57.0651 9.65807 56.8212 9.22408 56.3872C8.79008 55.9533 8.54626 55.3646 8.54626 54.7509V23.8595C8.54649 23.4858 8.63717 23.118 8.81057 22.787C8.98398 22.456 9.23497 22.172 9.54207 21.9591C9.84918 21.7462 10.2033 21.6109 10.5741 21.5646C10.9449 21.5184 11.3213 21.5626 11.6713 21.6935L15.1257 22.9889L15.8013 23.2423V22.5208V2.80774C15.803 2.1952 16.0475 1.60831 16.4812 1.17572C16.915 0.743002 17.5027 0.499998 18.1155 0.5H53.2389C53.8517 0.499998 54.4394 0.743001 54.8732 1.17572C55.3071 1.60843 55.5516 2.19554 55.5531 2.80828V22.5208Z" fill="url(#paint0_linear_974_55)" stroke="url(#paint1_linear_974_55)"/>
<path d="M52.196 28.6602L48.7341 29.9485V10.2419C48.7341 9.49681 48.4385 8.78209 47.9123 8.25453C47.3861 7.72698 46.6722 7.42964 45.9271 7.42773H10.818C10.0716 7.42773 9.35582 7.72423 8.82805 8.252C8.30029 8.77976 8.0038 9.49556 8.0038 10.2419V29.9485L4.54903 28.6602C4.12442 28.5008 3.66754 28.4468 3.21747 28.5026C2.76741 28.5584 2.33758 28.7225 1.96475 28.9807C1.59193 29.2389 1.28723 29.5836 1.07671 29.9853C0.866202 30.387 0.75615 30.8337 0.755981 31.2872V62.1858C0.755981 62.9303 1.05172 63.6442 1.57813 64.1706C2.10455 64.6971 2.81852 64.9928 3.56298 64.9928H53.1749C53.5441 64.9937 53.9099 64.9218 54.2513 64.7812C54.5927 64.6406 54.903 64.4339 55.1644 64.1732C55.4258 63.9124 55.6332 63.6027 55.7747 63.2616C55.9162 62.9206 55.9891 62.555 55.9891 62.1858V31.2872C55.9889 30.8337 55.8788 30.387 55.6683 29.9853C55.4578 29.5836 55.1531 29.2389 54.7803 28.9807C54.4075 28.7225 53.9776 28.5584 53.5276 28.5026C53.0775 28.4468 52.6206 28.5008 52.196 28.6602Z" fill="url(#paint2_linear_974_55)"/>
<path opacity="0.35" d="M52.196 28.6602L48.7341 29.9485V10.2419C48.7341 9.49681 48.4385 8.78209 47.9123 8.25453C47.3861 7.72698 46.6722 7.42964 45.9271 7.42773H10.818C10.0716 7.42773 9.35582 7.72423 8.82805 8.252C8.30029 8.77976 8.0038 9.49556 8.0038 10.2419V29.9485L4.54903 28.6602C4.12442 28.5008 3.66754 28.4468 3.21747 28.5026C2.76741 28.5584 2.33758 28.7225 1.96475 28.9807C1.59193 29.2389 1.28723 29.5836 1.07671 29.9853C0.866202 30.387 0.75615 30.8337 0.755981 31.2872V62.1858C0.755981 62.9303 1.05172 63.6442 1.57813 64.1706C2.10455 64.6971 2.81852 64.9928 3.56298 64.9928H53.1749C53.5441 64.9937 53.9099 64.9218 54.2513 64.7812C54.5927 64.6406 54.903 64.4339 55.1644 64.1732C55.4258 63.9124 55.6332 63.6027 55.7747 63.2616C55.9162 62.9206 55.9891 62.555 55.9891 62.1858V31.2872C55.9889 30.8337 55.8788 30.387 55.6683 29.9853C55.4578 29.5836 55.1531 29.2389 54.7803 28.9807C54.4075 28.7225 53.9776 28.5584 53.5276 28.5026C53.0775 28.4468 52.6206 28.5008 52.196 28.6602Z" fill="url(#paint3_radial_974_55)"/>
<path opacity="0.32" d="M52.196 28.5227L48.7341 29.811V10.1045C48.7341 9.35936 48.4385 8.64464 47.9123 8.11708C47.3861 7.58953 46.6722 7.29219 45.9271 7.29028H10.818C10.0716 7.29028 9.35582 7.58678 8.82805 8.11455C8.30029 8.64231 8.0038 9.35811 8.0038 10.1045V29.811L4.54903 28.5227C4.12442 28.3634 3.66754 28.3093 3.21747 28.3652C2.76741 28.421 2.33758 28.585 1.96475 28.8432C1.59193 29.1015 1.28723 29.4462 1.07671 29.8478C0.866202 30.2495 0.75615 30.6963 0.755981 31.1498V62.0483C0.755981 62.7928 1.05172 63.5068 1.57813 64.0332C2.10455 64.5596 2.81852 64.8553 3.56298 64.8553H53.1749C53.5441 64.8563 53.9099 64.7844 54.2513 64.6437C54.5927 64.5031 54.903 64.2965 55.1644 64.0357C55.4258 63.775 55.6332 63.4652 55.7747 63.1242C55.9162 62.7832 55.9891 62.4176 55.9891 62.0483V31.1498C55.9889 30.6963 55.8788 30.2495 55.6683 29.8478C55.4578 29.4462 55.1531 29.1015 54.7803 28.8432C54.4075 28.585 53.9776 28.421 53.5276 28.3652C53.0775 28.3093 52.6206 28.3634 52.196 28.5227Z" fill="url(#paint4_radial_974_55)"/>
<path opacity="0.31" d="M27.8759 37.3187C28.2038 37.3835 28.5412 37.3835 28.8691 37.3187C29.0358 37.2899 29.1995 37.2466 29.3586 37.1891L48.734 29.9485V10.2419C48.7341 9.49681 48.4385 8.78209 47.9123 8.25453C47.3861 7.72698 46.6722 7.42964 45.927 7.42773H10.818C10.0716 7.42773 9.35581 7.72423 8.82804 8.252C8.30028 8.77976 8.00378 9.49556 8.00378 10.2419V29.9485L27.3865 37.1891C27.5455 37.2466 27.7093 37.2899 27.8759 37.3187ZM15.4387 12.1996H41.3063C41.7091 12.1996 42.0953 12.3596 42.3802 12.6444C42.665 12.9292 42.825 13.3155 42.825 13.7183C42.825 14.1211 42.665 14.5073 42.3802 14.7921C42.0953 15.077 41.7091 15.237 41.3063 15.237H15.4387C15.036 15.237 14.6497 15.077 14.3649 14.7921C14.0801 14.5073 13.9201 14.1211 13.9201 13.7183C13.9201 13.3155 14.0801 12.9292 14.3649 12.6444C14.6497 12.3596 15.036 12.1996 15.4387 12.1996ZM15.4387 19.1811H41.3063C41.7091 19.1811 42.0953 19.3411 42.3802 19.6259C42.665 19.9107 42.825 20.297 42.825 20.6998C42.825 21.1026 42.665 21.4889 42.3802 21.7737C42.0953 22.0585 41.7091 22.2185 41.3063 22.2185H15.4387C15.036 22.2185 14.6497 22.0585 14.3649 21.7737C14.0801 21.4889 13.9201 21.1026 13.9201 20.6998C13.9201 20.297 14.0801 19.9107 14.3649 19.6259C14.6497 19.3411 15.036 19.1811 15.4387 19.1811ZM13.9201 27.6741C13.9201 27.2713 14.0801 26.8851 14.3649 26.6003C14.6497 26.3155 15.036 26.1555 15.4387 26.1555H41.3063C41.7091 26.1555 42.0953 26.3155 42.3802 26.6003C42.665 26.8851 42.825 27.2713 42.825 27.6741C42.8259 27.8738 42.7873 28.0717 42.7113 28.2564C42.6353 28.4411 42.5235 28.6089 42.3823 28.7501C42.2411 28.8913 42.0733 29.0031 41.8886 29.0791C41.7039 29.1551 41.506 29.1937 41.3063 29.1928H15.4387C15.239 29.1937 15.0411 29.1551 14.8564 29.0791C14.6718 29.0031 14.504 28.8913 14.3627 28.7501C14.2215 28.6089 14.1097 28.4411 14.0337 28.2564C13.9578 28.0717 13.9191 27.8738 13.9201 27.6741Z" fill="white"/>
<path opacity="0.5" d="M53.1821 28.4659C52.845 28.4633 52.5104 28.5243 52.196 28.6458L48.7341 29.9342L29.3586 37.1892C29.0422 37.3028 28.7087 37.3612 28.3725 37.3619C28.0363 37.3624 27.7026 37.3039 27.3865 37.1892L8.0038 29.9486L4.54903 28.6602C4.12442 28.5009 3.66754 28.4469 3.21747 28.5027C2.76741 28.5585 2.33758 28.7225 1.96475 28.9808C1.59193 29.239 1.28723 29.5837 1.07671 29.9854C0.866202 30.3871 0.75615 30.8338 0.755981 31.2873V62.1859C0.755981 62.9303 1.05172 63.6443 1.57813 64.1707C2.10455 64.6971 2.81852 64.9929 3.56298 64.9929H53.1749C53.5441 64.9938 53.9099 64.9219 54.2513 64.7813C54.5927 64.6406 54.903 64.434 55.1644 64.1733C55.4258 63.9125 55.6332 63.6028 55.7747 63.2617C55.9162 62.9207 55.9891 62.5551 55.9891 62.1859V31.2873C55.991 30.9175 55.9198 30.5509 55.7796 30.2087C55.6393 29.8665 55.4329 29.5553 55.172 29.2931C54.9112 29.031 54.6011 28.8229 54.2596 28.6809C53.9181 28.539 53.5519 28.4659 53.1821 28.4659ZM55.2118 62.1715C55.2098 62.7104 54.9944 63.2267 54.6126 63.6071C54.2308 63.9875 53.7138 64.2011 53.1749 64.2011H3.56298C3.02526 64.1992 2.51011 63.9848 2.12988 63.6046C1.74965 63.2244 1.5352 62.7092 1.53331 62.1715V31.2873C1.53298 31.0185 1.587 30.7524 1.69214 30.5051C1.79727 30.2577 1.95134 30.0341 2.14509 29.8478C2.42194 29.5705 2.77364 29.3799 3.15714 29.2994C3.54063 29.2188 3.93929 29.2518 4.30432 29.3944L7.76628 30.6899L27.1418 37.8873C27.5445 38.0388 27.9711 38.1168 28.4013 38.1177C28.8293 38.1172 29.2536 38.0392 29.6537 37.8873L49.0364 30.6899L52.4983 29.3944C52.7283 29.3077 52.9723 29.2637 53.2181 29.2648C53.7558 29.2667 54.2709 29.4812 54.6512 29.8614C55.0314 30.2416 55.2458 30.7568 55.2477 31.2945L55.2118 62.1715Z" fill="url(#paint5_linear_974_55)"/>
<path opacity="0.71" d="M47.3664 9.23435L54.643 15.6545L48.266 8.32747L54.6933 1.05087L47.3664 7.4206L40.0897 1.00049L46.4595 8.32747L40.0394 15.6041L47.3664 9.23435Z" fill="url(#paint6_radial_974_55)"/>
</g>
<defs>
<linearGradient id="paint0_linear_974_55" x1="16.9415" y1="-4.16587" x2="61.2039" y2="36.4514" gradientUnits="userSpaceOnUse">
<stop offset="0.069444" stop-color="#1F3DDE"/>
<stop offset="0.194444" stop-color="#1F3DDE" stop-opacity="0.65"/>
<stop offset="0.475694" stop-color="#1F3DDE" stop-opacity="0.44"/>
<stop offset="0.923611" stop-color="#1F3DDE" stop-opacity="0.52"/>
<stop offset="1" stop-color="#1F3DDE" stop-opacity="0.85"/>
</linearGradient>
<linearGradient id="paint1_linear_974_55" x1="35.6664" y1="0" x2="35.6664" y2="57.5651" gradientUnits="userSpaceOnUse">
<stop stop-color="#1934C1" stop-opacity="0.07"/>
<stop offset="1" stop-color="#1934C1" stop-opacity="0.39"/>
</linearGradient>
<linearGradient id="paint2_linear_974_55" x1="-88.521" y1="76.2352" x2="76.3578" y2="76.2352" gradientUnits="userSpaceOnUse">
<stop stop-color="#1F3DDE" stop-opacity="0.73"/>
<stop offset="0.184027" stop-color="#1F3DDE" stop-opacity="0.29"/>
<stop offset="0.33" stop-color="#1F3DDE" stop-opacity="0.64"/>
<stop offset="0.52" stop-color="#1F3DDE" stop-opacity="0.1"/>
<stop offset="0.67" stop-color="#1F3DDE" stop-opacity="0.34"/>
<stop offset="0.81" stop-color="#1F3DDE" stop-opacity="0.26"/>
<stop offset="0.93" stop-color="#1F3DDE" stop-opacity="0.21"/>
<stop offset="1" stop-color="#1F24A6" stop-opacity="0.75"/>
</linearGradient>
<radialGradient id="paint3_radial_974_55" cx="0" cy="0" r="1" gradientUnits="userSpaceOnUse" gradientTransform="translate(28.3725 39.8234) scale(32.5396 39.6983)">
<stop stop-color="white" stop-opacity="0"/>
<stop offset="0.37" stop-color="white" stop-opacity="0.01"/>
<stop offset="0.51" stop-color="white" stop-opacity="0.03"/>
<stop offset="0.6" stop-color="white" stop-opacity="0.08"/>
<stop offset="0.68" stop-color="white" stop-opacity="0.15"/>
<stop offset="0.75" stop-color="white" stop-opacity="0.23"/>
<stop offset="0.8" stop-color="white" stop-opacity="0.34"/>
<stop offset="0.86" stop-color="white" stop-opacity="0.47"/>
<stop offset="0.91" stop-color="white" stop-opacity="0.61"/>
<stop offset="0.95" stop-color="white" stop-opacity="0.78"/>
<stop offset="0.99" stop-color="white" stop-opacity="0.96"/>
<stop offset="1" stop-color="white"/>
</radialGradient>
<radialGradient id="paint4_radial_974_55" cx="0" cy="0" r="1" gradientUnits="userSpaceOnUse" gradientTransform="translate(42.8394 80.8768) scale(77.322)">
<stop stop-color="white"/>
<stop offset="0.07" stop-color="white" stop-opacity="0.89"/>
<stop offset="0.27" stop-color="white" stop-opacity="0.63"/>
<stop offset="0.46" stop-color="white" stop-opacity="0.4"/>
<stop offset="0.63" stop-color="white" stop-opacity="0.23"/>
<stop offset="0.78" stop-color="white" stop-opacity="0.1"/>
<stop offset="0.91" stop-color="white" stop-opacity="0.03"/>
<stop offset="1" stop-color="white" stop-opacity="0"/>
</radialGradient>
<linearGradient id="paint5_linear_974_55" x1="-1.66236" y1="29.0705" x2="62.5891" y2="66.8642" gradientUnits="userSpaceOnUse">
<stop stop-color="white" stop-opacity="0"/>
<stop offset="0.05" stop-color="white" stop-opacity="0.02"/>
<stop offset="0.12" stop-color="white" stop-opacity="0.08"/>
<stop offset="0.18" stop-color="white" stop-opacity="0.17"/>
<stop offset="0.26" stop-color="white" stop-opacity="0.3"/>
<stop offset="0.33" stop-color="white" stop-opacity="0.47"/>
<stop offset="0.41" stop-color="white" stop-opacity="0.67"/>
<stop offset="0.48" stop-color="white" stop-opacity="0.91"/>
<stop offset="0.51" stop-color="white" stop-opacity="0.96"/>
<stop offset="0.53" stop-color="white" stop-opacity="0.78"/>
<stop offset="0.56" stop-color="white" stop-opacity="0.61"/>
<stop offset="0.58" stop-color="white" stop-opacity="0.47"/>
<stop offset="0.61" stop-color="white" stop-opacity="0.34"/>
<stop offset="0.64" stop-color="white" stop-opacity="0.23"/>
<stop offset="0.67" stop-color="white" stop-opacity="0.15"/>
<stop offset="0.71" stop-color="white" stop-opacity="0.08"/>
<stop offset="0.75" stop-color="white" stop-opacity="0.03"/>
<stop offset="0.82" stop-color="white" stop-opacity="0.01"/>
<stop offset="1" stop-color="white" stop-opacity="0"/>
</linearGradient>
<radialGradient id="paint6_radial_974_55" cx="0" cy="0" r="1" gradientUnits="userSpaceOnUse" gradientTransform="translate(47.3643 8.53833) rotate(45) scale(10.3283)">
<stop stop-color="white"/>
<stop offset="0.09" stop-color="white" stop-opacity="0.84"/>
<stop offset="0.23" stop-color="white" stop-opacity="0.62"/>
<stop offset="0.36" stop-color="white" stop-opacity="0.43"/>
<stop offset="0.5" stop-color="white" stop-opacity="0.28"/>
<stop offset="0.63" stop-color="white" stop-opacity="0.15"/>
<stop offset="0.76" stop-color="white" stop-opacity="0.07"/>
<stop offset="0.89" stop-color="white" stop-opacity="0.02"/>
<stop offset="1" stop-color="white" stop-opacity="0"/>
</radialGradient>
<clipPath id="clip0_974_55">
<rect width="62.4881" height="65" fill="white" transform="translate(0.755981)"/>
</clipPath>
</defs>
</svg>
