<svg width="72" height="65" viewBox="0 0 72 65" fill="none" xmlns="http://www.w3.org/2000/svg">
<path d="M58.2372 14.1164L58.2376 14.1168C59.2302 15.0851 59.815 16.3964 59.8723 17.7819L59.8723 17.7827L61.3924 53.2395L61.3924 53.2403C61.4241 53.9545 61.3145 54.668 61.07 55.3399C60.8254 56.0117 60.4507 56.6287 59.9672 57.1554C59.4838 57.6822 58.9011 58.1083 58.2527 58.4095C57.6043 58.7106 56.9028 58.8809 56.1884 58.9104L56.1875 58.9104L35.6467 59.7959C34.2058 59.8548 32.8003 59.3399 31.7384 58.3642C30.6765 57.3885 30.0448 56.0316 29.9817 54.5908L28.4547 19.211L28.4547 19.2103C28.3908 17.7797 28.8958 16.382 29.8591 15.3225L29.8595 15.3221L39.9838 4.1658C40.4763 3.62367 41.0731 3.18644 41.7385 2.88024C42.4039 2.57404 43.1242 2.40515 43.8563 2.38369C44.5885 2.36222 45.3174 2.48862 45.9996 2.75531C46.6818 3.02201 47.3032 3.42354 47.8266 3.93588L47.8268 3.93603L58.2372 14.1164Z" fill="url(#paint0_linear_974_1071)" stroke="url(#paint1_linear_974_1071)"/>
<path opacity="0.71" d="M43.5698 13.1L50.1517 18.9072L44.3836 12.2797L50.1973 5.69792L43.5698 11.4595L36.988 5.65234L42.7496 12.2797L36.9424 18.8616L43.5698 13.1Z" fill="url(#paint2_radial_974_1071)"/>
<path d="M52.2485 25.0688L48.6505 10.9558C48.4531 10.1852 48.1029 9.46212 47.6208 8.82942C47.1386 8.19672 46.5343 7.6673 45.8436 7.27256C45.153 6.87781 44.3901 6.62579 43.6002 6.53144C42.8104 6.43709 42.0096 6.50233 41.2454 6.72329L26.7907 10.9837C25.2885 11.424 24.0222 12.4421 23.2695 13.8147L6.12327 44.8158C5.36451 46.1983 5.18581 47.8255 5.62646 49.3396C6.06711 50.8538 7.09103 52.131 8.47311 52.8904L26.477 62.8267C27.1604 63.2038 27.9115 63.4426 28.6873 63.5294C29.4631 63.6161 30.2484 63.5491 30.9983 63.3321C31.7482 63.1152 32.448 62.7526 33.0577 62.2651C33.6673 61.7775 34.175 61.1746 34.5515 60.4908L51.7046 29.4129C52.4296 28.086 52.624 26.5334 52.2485 25.0688ZM42.9328 16.6038C42.4528 16.699 41.9553 16.6498 41.5033 16.4624C41.0512 16.275 40.6649 15.9578 40.393 15.5509C40.1211 15.1441 39.9759 14.6657 39.9758 14.1763C39.9757 13.687 40.1207 13.2086 40.3923 12.8015C40.664 12.3945 41.0502 12.0771 41.5022 11.8895C41.9542 11.7019 42.4516 11.6525 42.9317 11.7475C43.4117 11.8425 43.8529 12.0776 44.1993 12.4232C44.5458 12.7688 44.782 13.2093 44.8782 13.6892C45.0055 14.3335 44.8723 15.0021 44.5077 15.5484C44.143 16.0947 43.5767 16.4742 42.9328 16.6038Z" fill="url(#paint3_linear_974_1071)"/>
<path opacity="0.35" d="M52.2485 25.0688L48.6505 10.9558C48.4531 10.1852 48.1029 9.46212 47.6208 8.82942C47.1386 8.19672 46.5343 7.6673 45.8436 7.27256C45.153 6.87781 44.3901 6.62579 43.6002 6.53144C42.8104 6.43709 42.0096 6.50233 41.2454 6.72329L26.7907 10.9837C25.2885 11.424 24.0222 12.4421 23.2695 13.8147L6.12327 44.8158C5.36451 46.1983 5.18581 47.8255 5.62646 49.3396C6.06711 50.8538 7.09103 52.131 8.47311 52.8904L26.477 62.8267C27.1604 63.2038 27.9115 63.4426 28.6873 63.5294C29.4631 63.6161 30.2484 63.5491 30.9983 63.3321C31.7482 63.1152 32.448 62.7526 33.0577 62.2651C33.6673 61.7775 34.175 61.1746 34.5515 60.4908L51.7046 29.4129C52.4296 28.086 52.624 26.5334 52.2485 25.0688ZM42.9328 16.6038C42.4528 16.699 41.9553 16.6498 41.5033 16.4624C41.0512 16.275 40.6649 15.9578 40.393 15.5509C40.1211 15.1441 39.9759 14.6657 39.9758 14.1763C39.9757 13.687 40.1207 13.2086 40.3923 12.8015C40.664 12.3945 41.0502 12.0771 41.5022 11.8895C41.9542 11.7019 42.4516 11.6525 42.9317 11.7475C43.4117 11.8425 43.8529 12.0776 44.1993 12.4232C44.5458 12.7688 44.782 13.2093 44.8782 13.6892C45.0055 14.3335 44.8723 15.0021 44.5077 15.5484C44.143 16.0947 43.5767 16.4742 42.9328 16.6038Z" fill="url(#paint4_radial_974_1071)"/>
<path opacity="0.32" d="M52.7145 25.1735L49.1165 11.0605C48.9191 10.2899 48.5689 9.56686 48.0868 8.93416C47.6046 8.30145 47.0003 7.77203 46.3096 7.37729C45.619 6.98255 44.8561 6.73052 44.0662 6.63617C43.2764 6.54182 42.4756 6.60707 41.7114 6.82803L27.2567 11.0884C25.7545 11.5288 24.4882 12.5468 23.7355 13.9194L6.58927 44.9206C5.83051 46.303 5.65181 47.9302 6.09246 49.4444C6.53311 50.9585 7.55703 52.2357 8.93911 52.9951L26.943 62.9314C27.6264 63.3086 28.3775 63.5474 29.1533 63.6341C29.9291 63.7208 30.7144 63.6538 31.4643 63.4369C32.2142 63.2199 32.914 62.8573 33.5237 62.3698C34.1333 61.8823 34.641 61.2793 35.0175 60.5955L52.1706 29.5176C52.8956 28.1908 53.09 26.6382 52.7145 25.1735ZM43.3988 16.7085C42.9188 16.8037 42.4214 16.7545 41.9693 16.5672C41.5172 16.3798 41.1309 16.0626 40.859 15.6557C40.5871 15.2488 40.4419 14.7704 40.4418 14.2811C40.4417 13.7917 40.5867 13.3133 40.8583 12.9063C41.13 12.4992 41.5162 12.1819 41.9682 11.9943C42.4202 11.8067 42.9176 11.7572 43.3977 11.8522C43.8777 11.9472 44.3189 12.1823 44.6653 12.5279C45.0118 12.8735 45.248 13.3141 45.3442 13.7939C45.4715 14.4382 45.3383 15.1068 44.9737 15.6531C44.609 16.1994 44.0427 16.5789 43.3988 16.7085Z" fill="url(#paint5_radial_974_1071)"/>
<path opacity="0.5" d="M42.898 7.52517C43.9864 7.52329 45.0443 7.8853 45.9034 8.55364C46.7625 9.22198 47.3736 10.1583 47.6395 11.2138L51.2305 25.3268C51.5415 26.5333 51.3793 27.813 50.7773 28.9039L33.6241 59.9887C33.3152 60.5534 32.8977 61.0514 32.3956 61.454C31.8935 61.8567 31.3167 62.1561 30.6984 62.3349C30.0802 62.5138 29.4326 62.5686 28.7931 62.4962C28.1536 62.4239 27.5347 62.2257 26.972 61.9132L8.96121 51.9769C8.39715 51.6675 7.89983 51.2495 7.49787 50.7471C7.09592 50.2448 6.79724 49.6679 6.61904 49.0497C6.44083 48.4315 6.38661 47.7841 6.45948 47.1449C6.53236 46.5056 6.73091 45.8871 7.04369 45.3249L24.148 14.3167C24.7712 13.1865 25.8167 12.3491 27.0557 11.9878L41.5104 7.72041C41.9635 7.58912 42.4331 7.52338 42.9049 7.52517M42.4517 17.6915C42.6856 17.6922 42.919 17.6712 43.149 17.6288C44.0049 17.4559 44.7661 16.9711 45.2847 16.2685C45.8033 15.566 46.0424 14.6958 45.9555 13.8269C45.8686 12.958 45.462 12.1523 44.8145 11.5664C44.167 10.9804 43.3249 10.656 42.4517 10.656C42.2174 10.6536 41.9836 10.677 41.7544 10.7257C41.2966 10.7715 40.8522 10.907 40.4468 11.1245C40.0413 11.342 39.6826 11.6372 39.3913 11.9934C38.8028 12.7126 38.5242 13.6361 38.6166 14.5608C38.7091 15.4854 39.1651 16.3355 39.8843 16.9239C40.6035 17.5123 41.5271 17.791 42.4517 17.6985M42.9049 6.48622C42.3336 6.48562 41.7652 6.56782 41.2175 6.73026L26.7628 10.9907C25.2606 11.431 23.9943 12.4491 23.2416 13.8216L6.12327 44.8158C5.36451 46.1983 5.18581 47.8255 5.62646 49.3396C6.06711 50.8538 7.09103 52.131 8.47311 52.8904L26.477 62.8267C27.1604 63.2038 27.9115 63.4426 28.6873 63.5294C29.4631 63.6161 30.2484 63.5491 30.9983 63.3321C31.7482 63.1152 32.448 62.7526 33.0577 62.2651C33.6673 61.7775 34.175 61.1746 34.5515 60.4908L51.7046 29.4129C52.4343 28.0879 52.6337 26.5352 52.2625 25.0688L48.6645 10.9558C48.3392 9.67662 47.5971 8.54219 46.5554 7.73158C45.5138 6.92098 44.2318 6.48035 42.9119 6.47925L42.9049 6.48622ZM42.4517 16.6526C41.8545 16.6283 41.2862 16.3887 40.8519 15.9781C40.4176 15.5674 40.1464 15.0135 40.0887 14.4186C40.0309 13.8237 40.1903 13.228 40.5375 12.7415C40.8847 12.2549 41.3962 11.9104 41.9775 11.7716C42.1357 11.7381 42.297 11.7218 42.4587 11.7228C43.0564 11.7457 43.6256 11.9842 44.061 12.3943C44.4964 12.8044 44.7687 13.3583 44.8274 13.9535C44.886 14.5488 44.7272 15.1451 44.3802 15.6323C44.0332 16.1196 43.5215 16.4646 42.9398 16.6038C42.7786 16.6315 42.6153 16.6455 42.4517 16.6456V16.6526Z" fill="url(#paint6_linear_974_1071)"/>
<path opacity="0.31" d="M14.7616 42.3041C13.9274 41.8392 12.8742 42.1386 12.4093 42.9729C11.9444 43.8071 12.2438 44.8603 13.0781 45.3252L30.3457 54.9481C31.18 55.413 32.2331 55.1136 32.698 54.2794C33.1629 53.4451 32.8635 52.3919 32.0293 51.927L14.7616 42.3041Z" fill="white"/>
<path opacity="0.31" d="M18.2634 36.0046C17.4291 35.5396 16.376 35.8391 15.9111 36.6733C15.4462 37.5076 15.7456 38.5607 16.5798 39.0256L33.8475 48.6485C34.6817 49.1134 35.7349 48.814 36.1998 47.9798C36.6647 47.1455 36.3653 46.0924 35.5311 45.6275L18.2634 36.0046Z" fill="white"/>
<path opacity="0.31" d="M21.7813 29.7023C20.947 29.2374 19.8939 29.5368 19.429 30.371C18.964 31.2053 19.2634 32.2585 20.0977 32.7234L37.3654 42.3463C38.1996 42.8112 39.2528 42.5118 39.7177 41.6775C40.1826 40.8433 39.8832 39.7901 39.049 39.3252L21.7813 29.7023Z" fill="white"/>
<defs>
<linearGradient id="paint0_linear_974_1071" x1="18.1017" y1="74.8914" x2="86.3988" y2="-13.6594" gradientUnits="userSpaceOnUse">
<stop offset="0.215277" stop-color="#1934C1"/>
<stop offset="0.366319" stop-color="#2946DC" stop-opacity="0.16"/>
<stop offset="0.475694" stop-color="#2440D4" stop-opacity="0.24"/>
<stop offset="0.673611" stop-color="#1934C1"/>
</linearGradient>
<linearGradient id="paint1_linear_974_1071" x1="44.9235" y1="1.88135" x2="44.9235" y2="60.3005" gradientUnits="userSpaceOnUse">
<stop stop-color="#1934C1" stop-opacity="0.14"/>
<stop offset="1" stop-color="#1934C1" stop-opacity="0.16"/>
</linearGradient>
<radialGradient id="paint2_radial_974_1071" cx="0" cy="0" r="1" gradientUnits="userSpaceOnUse" gradientTransform="translate(43.568 12.4705) rotate(45) scale(9.34217)">
<stop stop-color="white"/>
<stop offset="0.09" stop-color="white" stop-opacity="0.84"/>
<stop offset="0.23" stop-color="white" stop-opacity="0.62"/>
<stop offset="0.36" stop-color="white" stop-opacity="0.43"/>
<stop offset="0.5" stop-color="white" stop-opacity="0.28"/>
<stop offset="0.63" stop-color="white" stop-opacity="0.15"/>
<stop offset="0.76" stop-color="white" stop-opacity="0.07"/>
<stop offset="0.89" stop-color="white" stop-opacity="0.02"/>
<stop offset="1" stop-color="white" stop-opacity="0"/>
</radialGradient>
<linearGradient id="paint3_linear_974_1071" x1="31.7892" y1="-6.03489" x2="23.9658" y2="82.6704" gradientUnits="userSpaceOnUse">
<stop stop-color="#1934C1" stop-opacity="0.59"/>
<stop offset="0.33" stop-color="#1934C1" stop-opacity="0.15"/>
<stop offset="0.52" stop-color="#1934C1" stop-opacity="0.16"/>
<stop offset="0.67" stop-color="#1934C1" stop-opacity="0.25"/>
<stop offset="0.741319" stop-color="#8E9DEF" stop-opacity="0.57"/>
<stop offset="0.81" stop-color="white"/>
<stop offset="0.93" stop-color="#2F1CB9" stop-opacity="0"/>
</linearGradient>
<radialGradient id="paint4_radial_974_1071" cx="0" cy="0" r="1" gradientUnits="userSpaceOnUse" gradientTransform="translate(27.7632 37.5635) rotate(-10.9722) scale(25.984)">
<stop stop-color="white" stop-opacity="0"/>
<stop offset="0.37" stop-color="white" stop-opacity="0.01"/>
<stop offset="0.51" stop-color="white" stop-opacity="0.03"/>
<stop offset="0.6" stop-color="white" stop-opacity="0.08"/>
<stop offset="0.68" stop-color="white" stop-opacity="0.15"/>
<stop offset="0.75" stop-color="white" stop-opacity="0.23"/>
<stop offset="0.8" stop-color="white" stop-opacity="0.34"/>
<stop offset="0.86" stop-color="white" stop-opacity="0.47"/>
<stop offset="0.91" stop-color="white" stop-opacity="0.61"/>
<stop offset="0.95" stop-color="white" stop-opacity="0.78"/>
<stop offset="0.99" stop-color="white" stop-opacity="0.96"/>
<stop offset="1" stop-color="white"/>
</radialGradient>
<radialGradient id="paint5_radial_974_1071" cx="0" cy="0" r="1" gradientUnits="userSpaceOnUse" gradientTransform="translate(19.6189 17.833) rotate(-10.9722) scale(40.1697 40.1697)">
<stop stop-color="white"/>
<stop offset="0.07" stop-color="white" stop-opacity="0.89"/>
<stop offset="0.27" stop-color="white" stop-opacity="0.63"/>
<stop offset="0.46" stop-color="white" stop-opacity="0.4"/>
<stop offset="0.63" stop-color="white" stop-opacity="0.23"/>
<stop offset="0.78" stop-color="white" stop-opacity="0.1"/>
<stop offset="0.91" stop-color="white" stop-opacity="0.03"/>
<stop offset="1" stop-color="white" stop-opacity="0"/>
</radialGradient>
<linearGradient id="paint6_linear_974_1071" x1="9.17737" y1="9.37995" x2="57.0598" y2="64.5699" gradientUnits="userSpaceOnUse">
<stop stop-color="white" stop-opacity="0"/>
<stop offset="0.05" stop-color="white" stop-opacity="0.02"/>
<stop offset="0.12" stop-color="white" stop-opacity="0.08"/>
<stop offset="0.18" stop-color="white" stop-opacity="0.17"/>
<stop offset="0.26" stop-color="white" stop-opacity="0.3"/>
<stop offset="0.33" stop-color="white" stop-opacity="0.47"/>
<stop offset="0.41" stop-color="white" stop-opacity="0.67"/>
<stop offset="0.48" stop-color="white" stop-opacity="0.91"/>
<stop offset="0.51" stop-color="white" stop-opacity="0.96"/>
<stop offset="0.53" stop-color="white" stop-opacity="0.78"/>
<stop offset="0.56" stop-color="white" stop-opacity="0.61"/>
<stop offset="0.58" stop-color="white" stop-opacity="0.47"/>
<stop offset="0.61" stop-color="white" stop-opacity="0.34"/>
<stop offset="0.64" stop-color="white" stop-opacity="0.23"/>
<stop offset="0.67" stop-color="white" stop-opacity="0.15"/>
<stop offset="0.71" stop-color="white" stop-opacity="0.08"/>
<stop offset="0.75" stop-color="white" stop-opacity="0.03"/>
<stop offset="0.82" stop-color="white" stop-opacity="0.01"/>
<stop offset="1" stop-color="white" stop-opacity="0"/>
</linearGradient>
</defs>
</svg>
