<svg width="30" height="30" viewBox="0 0 30 30" fill="none" xmlns="http://www.w3.org/2000/svg">
<path d="M15.7499 1C8.05432 1 1.81445 7.23986 1.81445 14.9355C1.81445 22.6311 8.05432 28.871 15.7499 28.871C23.4456 28.871 29.6854 22.6311 29.6854 14.9355C29.6854 7.23986 23.4456 1 15.7499 1ZM22.4471 11.5045C22.4564 11.6507 22.4564 11.8031 22.4564 11.9524C22.4564 16.5188 18.9787 21.7788 12.6238 21.7788C10.6641 21.7788 8.84752 21.2096 7.3171 20.2297C7.59706 20.2608 7.86457 20.2733 8.15074 20.2733C9.76826 20.2733 11.2551 19.7258 12.4403 18.7988C10.9223 18.7677 9.64694 17.7724 9.21146 16.4037C9.74337 16.4815 10.2224 16.4815 10.7699 16.3415C9.98826 16.1827 9.28572 15.7582 8.78162 15.1401C8.27752 14.522 8.00295 13.7485 8.00455 12.9509V12.9074C8.4618 13.1656 8.99994 13.3242 9.56296 13.346C9.08965 13.0305 8.7015 12.6032 8.43291 12.1018C8.16432 11.6005 8.02359 11.0406 8.02321 10.4718C8.02321 9.82788 8.19118 9.23998 8.49291 8.72984C9.36046 9.79782 10.443 10.6713 11.6703 11.2935C12.8975 11.9157 14.2419 12.2727 15.6162 12.3412C15.1278 9.99274 16.8822 8.09217 18.9912 8.09217C19.9866 8.09217 20.8824 8.50899 21.5139 9.18088C22.2946 9.03468 23.0412 8.74228 23.7069 8.35035C23.4487 9.14977 22.9074 9.82477 22.1889 10.2509C22.8857 10.1763 23.5575 9.98341 24.1797 9.71279C23.71 10.4033 23.1221 11.0161 22.4471 11.5045Z" fill="#606060"/>
</svg>
