<svg width="30" height="30" viewBox="0 0 30 30" fill="none" xmlns="http://www.w3.org/2000/svg">
<path d="M19.6781 17.9272C20.8884 16.2756 21.4305 14.228 21.1959 12.1939C20.9613 10.1598 19.9673 8.28923 18.4128 6.95652C16.8583 5.62381 14.8579 4.92719 12.8119 5.00603C10.7658 5.08487 8.82496 5.93335 7.37762 7.38173C5.93028 8.83011 5.08318 10.7716 5.00581 12.8177C4.92843 14.8638 5.62649 16.8637 6.96031 18.4172C8.29413 19.9708 10.1654 20.9634 12.1996 21.1966C14.2339 21.4297 16.2812 20.8861 17.9319 19.6746H17.9306C17.9681 19.7246 18.0081 19.7721 18.0531 19.8184L22.8654 24.6307C23.0998 24.8652 23.4178 24.9971 23.7493 24.9972C24.0809 24.9973 24.399 24.8657 24.6335 24.6313C24.868 24.3969 24.9999 24.079 25 23.7474C25.0001 23.4158 24.8685 23.0978 24.6341 22.8633L19.8218 18.0509C19.7771 18.0057 19.7291 17.9639 19.6781 17.926V17.9272ZM20.0006 13.1224C20.0006 14.0252 19.8227 14.9191 19.4773 15.7532C19.1318 16.5873 18.6254 17.3452 17.987 17.9836C17.3486 18.6219 16.5907 19.1283 15.7567 19.4738C14.9226 19.8193 14.0286 19.9971 13.1258 19.9971C12.223 19.9971 11.329 19.8193 10.495 19.4738C9.66088 19.1283 8.90302 18.6219 8.26464 17.9836C7.62626 17.3452 7.11987 16.5873 6.77438 15.7532C6.4289 14.9191 6.25108 14.0252 6.25108 13.1224C6.25108 11.2991 6.97538 9.55047 8.26464 8.2612C9.5539 6.97194 11.3025 6.24764 13.1258 6.24764C14.9491 6.24764 16.6977 6.97194 17.987 8.2612C19.2763 9.55047 20.0006 11.2991 20.0006 13.1224Z" fill="black"/>
</svg>
