<svg width="129" height="25" viewBox="0 0 129 25" fill="none" xmlns="http://www.w3.org/2000/svg">
<path d="M11.3393 24.6262C10.2833 24.6262 9.33531 24.5782 8.49531 24.4822C7.67931 24.3862 6.77931 24.2062 5.79531 23.9422C4.6913 23.6542 3.7793 23.2822 3.0593 22.8262C2.3393 22.3462 1.7393 21.6862 1.2593 20.8462C0.755305 20.0062 0.503305 19.0102 0.503305 17.8582V7.59817C0.503305 2.89417 4.11531 0.542173 11.3393 0.542173C13.1873 0.542173 15.6593 0.806173 18.7553 1.33417V5.54617C15.9713 4.87417 13.5233 4.53817 11.4113 4.53817C10.5233 4.53817 9.82731 4.56217 9.32331 4.61017C8.84331 4.65817 8.33931 4.77817 7.8113 4.97017C6.68331 5.35417 6.11931 6.20617 6.11931 7.52617V17.4622C6.11931 19.5742 8.05131 20.6302 11.9153 20.6302C13.5713 20.6302 15.8993 20.2822 18.8993 19.5862V23.8342C16.3313 24.3622 13.8113 24.6262 11.3393 24.6262ZM22.4878 0.902173H30.4798L36.2398 17.6062L41.9278 0.902173H49.4518V24.2662H44.3758V6.98617H44.2678L38.3638 24.2662H33.8638L27.7798 6.98617H27.6358V24.2662H22.4878V0.902173Z" fill="#101011"/>
<path d="M62.04 24.6262C59.808 24.6262 57.048 24.4102 53.76 23.9782V19.6942C57.84 20.3182 60.624 20.6302 62.112 20.6302C65.232 20.6302 66.792 19.8262 66.792 18.2182V16.7062C66.792 15.9382 66.564 15.3502 66.108 14.9422C65.676 14.5342 64.884 14.3302 63.732 14.3302H60.996C55.86 14.3302 53.292 12.2902 53.292 8.21017V6.48217C53.292 4.44217 54.144 2.94217 55.848 1.98217C57.552 1.02217 60.252 0.542173 63.948 0.542173C65.868 0.542173 68.304 0.698173 71.256 1.01017V5.18617C67.632 4.75417 65.136 4.53817 63.768 4.53817C61.872 4.53817 60.6 4.69417 59.952 5.00617C59.256 5.34217 58.908 5.87017 58.908 6.59017V8.24617C58.908 9.47017 59.94 10.0822 62.004 10.0822H64.812C67.476 10.0822 69.408 10.5742 70.608 11.5582C71.808 12.5422 72.408 14.0422 72.408 16.0582V17.6062C72.408 20.3902 71.412 22.2742 69.42 23.2582C68.46 23.7622 67.392 24.1102 66.216 24.3022C65.064 24.5182 63.672 24.6262 62.04 24.6262Z" fill="#1F3DDE"/>
<path d="M75.592 19.2982H81.208V24.2662H75.592V19.2982ZM85.5229 0.902173H94.9909C97.2229 0.902173 98.9389 1.07017 100.139 1.40617C101.363 1.71817 102.227 2.23417 102.731 2.95417C103.235 3.65017 103.487 4.63417 103.487 5.90617V8.78617C103.487 9.43417 103.223 10.0462 102.695 10.6222C102.191 11.1982 101.591 11.5942 100.895 11.8102V11.9902C101.807 12.0862 102.635 12.4822 103.379 13.1782C104.147 13.8502 104.531 14.6062 104.531 15.4462V19.0462C104.531 20.9422 103.775 22.2862 102.263 23.0782C100.751 23.8702 98.4109 24.2662 95.2429 24.2662H85.5229V0.902173ZM94.9909 10.4062C95.8789 10.4062 96.5389 10.3342 96.9709 10.1902C97.4029 10.0462 97.6909 9.81817 97.8349 9.50617C98.0029 9.17017 98.0869 8.69017 98.0869 8.06617V6.91417C98.0869 6.36217 98.0149 5.95417 97.8709 5.69017C97.7269 5.40217 97.4269 5.19817 96.9709 5.07817C96.5389 4.95817 95.8429 4.89817 94.8829 4.89817H91.1389V10.4062H94.9909ZM95.1349 20.2702C96.5029 20.2702 97.4749 20.1142 98.0509 19.8022C98.6269 19.4902 98.9149 18.9862 98.9149 18.2902V16.4182C98.9149 15.5542 98.6869 14.9422 98.2309 14.5822C97.7989 14.2222 97.0189 14.0422 95.8909 14.0422H91.1389V20.2702H95.1349ZM114.602 14.9062L106.142 0.902173H112.514L117.446 10.0462L122.342 0.902173H128.75L120.218 14.8342V24.2662H114.602V14.9062Z" fill="black"/>
</svg>
