<svg width="76" height="67" viewBox="0 0 76 67" fill="none" xmlns="http://www.w3.org/2000/svg">
<path d="M75.583 56.0466C74.8952 52.7725 73.3836 49.7313 71.1933 47.215C69.0031 44.6987 66.2077 42.7917 63.0753 41.677C59.9429 40.5622 56.5787 40.2772 53.3055 40.8491C50.0323 41.4211 46.9599 42.831 44.3832 44.9434C46.2217 47.5979 47.4981 50.6051 48.1331 53.778C48.4538 55.31 48.6266 56.8697 48.649 58.4352C48.6614 60.2633 48.0257 62.0357 46.8563 63.4336C45.6869 64.8315 44.0606 65.7631 42.2701 66.0606C42.6429 66.1328 43.0215 66.1696 43.4011 66.1705H69.7895C70.6096 66.1719 71.4218 66.0093 72.1791 65.6923C72.9364 65.3752 73.6238 64.91 74.2014 64.3234C74.7789 63.7369 75.2353 63.0408 75.544 62.2754C75.8527 61.51 76.0076 60.6905 75.9997 59.8643C75.9823 58.5813 75.8428 57.3029 75.583 56.0466ZM56.6052 13.0727C54.2762 13.0727 51.9995 13.7684 50.063 15.0719C48.1265 16.3754 46.6172 18.2282 45.726 20.3958C44.8347 22.5634 44.6015 24.9487 45.0559 27.2498C45.5102 29.551 46.6318 31.6647 48.2786 33.3238C49.9254 34.9828 52.0237 36.1126 54.3079 36.5704C56.5921 37.0281 58.9598 36.7932 61.1115 35.8953C63.2632 34.9974 65.1023 33.477 66.3962 31.5261C67.6902 29.5753 68.3808 27.2817 68.3808 24.9355C68.3755 21.7937 67.1322 18.7825 64.9242 16.5637C62.7161 14.3449 59.7239 13.1 56.6052 13.1027V13.0727Z" fill="url(#paint0_linear_785_366)"/>
<path style="mix-blend-mode:multiply" opacity="0.5" d="M47.8843 51.6093C48.6323 53.9456 49.0334 56.3805 49.0747 58.8349C49.0871 60.663 48.4514 62.4355 47.282 63.8334C46.1126 65.2313 44.4863 66.1628 42.6959 66.4603C43.0686 66.5325 43.4472 66.5693 43.8268 66.5702H55.4932L47.8843 51.6093Z" fill="url(#paint1_linear_785_366)"/>
<path d="M39.294 15.5712C39.294 18.4531 38.4457 21.2703 36.8564 23.6665C35.2671 26.0627 33.0081 27.9303 30.3652 29.0332C27.7222 30.136 24.814 30.4246 22.0082 29.8624C19.2025 29.3001 16.6252 27.9124 14.6024 25.8745C12.5796 23.8367 11.202 21.2404 10.6439 18.4139C10.0858 15.5873 10.3723 12.6576 11.467 9.99502C12.5618 7.33249 14.4156 5.05678 16.7942 3.45568C19.1728 1.85458 21.9693 1 24.83 1C26.7295 1 28.6103 1.37689 30.3652 2.10916C32.12 2.84143 33.7145 3.91474 35.0576 5.2678C36.4007 6.62086 37.4661 8.22717 38.193 9.99502C38.9199 11.7629 39.294 13.6577 39.294 15.5712ZM48.649 58.4052C48.6295 56.84 48.4601 55.2804 48.1431 53.748C46.9659 47.9008 43.6677 42.7054 38.8924 39.1762C34.1171 35.6471 28.2076 34.0376 22.3177 34.6619C16.4277 35.2862 10.9802 38.0996 7.03863 42.5527C3.09707 47.0058 0.944464 52.7789 1.00109 58.745V58.775C1.05824 60.7729 1.89581 62.6673 3.33175 64.0465C4.76769 65.4257 6.68595 66.1782 8.6696 66.1405H41.0202C42.027 66.1432 43.0243 65.9446 43.9543 65.5562C44.8843 65.1678 45.7286 64.5973 46.4381 63.8778C47.1477 63.1583 47.7085 62.3041 48.088 61.3647C48.4675 60.4253 48.6582 59.4194 48.649 58.4052Z" fill="url(#paint2_linear_785_366)" stroke="url(#paint3_linear_785_366)" stroke-width="0.86" stroke-linecap="round" stroke-linejoin="round"/>
<defs>
<linearGradient id="paint0_linear_785_366" x1="59.1351" y1="13.0727" x2="59.1351" y2="66.1705" gradientUnits="userSpaceOnUse">
<stop stop-color="#1934C1" stop-opacity="0.9"/>
<stop offset="1" stop-color="#1934C1" stop-opacity="0.38"/>
</linearGradient>
<linearGradient id="paint1_linear_785_366" x1="26.1386" y1="39.7465" x2="63.0552" y2="76.3817" gradientUnits="userSpaceOnUse">
<stop stop-color="#1C17FA"/>
<stop offset="1" stop-color="#4945FF"/>
</linearGradient>
<linearGradient id="paint2_linear_785_366" x1="38.7683" y1="68.639" x2="6.62652" y2="10.2054" gradientUnits="userSpaceOnUse">
<stop stop-color="#1934C1"/>
<stop offset="0.226953" stop-color="#1934C1" stop-opacity="0.18"/>
<stop offset="0.329367" stop-color="white" stop-opacity="0.06"/>
<stop offset="0.59" stop-color="white" stop-opacity="0.14"/>
<stop offset="0.671968" stop-color="white" stop-opacity="0.25"/>
<stop offset="0.892033" stop-color="#1934C1" stop-opacity="0.41"/>
<stop offset="1" stop-color="#1934C1"/>
</linearGradient>
<linearGradient id="paint3_linear_785_366" x1="24.83" y1="66.5702" x2="24.83" y2="0.57026" gradientUnits="userSpaceOnUse">
<stop offset="0.0275289" stop-color="#1934C1" stop-opacity="0.65"/>
<stop offset="0.11" stop-color="white" stop-opacity="0.03"/>
<stop offset="0.28" stop-color="#1934C1" stop-opacity="0.1"/>
<stop offset="0.47" stop-color="white" stop-opacity="0.23"/>
<stop offset="0.69" stop-color="#1934C1" stop-opacity="0.1"/>
<stop offset="0.93" stop-color="white" stop-opacity="0.63"/>
<stop offset="1" stop-color="#1934C1"/>
</linearGradient>
</defs>
</svg>
