<svg width="38" height="38" viewBox="0 0 38 38" fill="none" xmlns="http://www.w3.org/2000/svg">
<path d="M21.4395 20.5814C22.1832 20.3824 22.8633 21.0631 22.6638 21.8066L20.2478 30.8106C20.0483 31.5541 19.1187 31.8028 18.5746 31.2583L11.9849 24.6639C11.4408 24.1193 11.6902 23.19 12.4338 22.991L21.4395 20.5814Z" fill="#3705C6"/>
<path d="M29.5324 11.9126C30.0079 11.3072 30.9604 11.4435 31.247 12.158L34.4218 20.0737C34.7084 20.7882 34.1141 21.545 33.352 21.4359L24.9094 20.2275C24.1474 20.1185 23.7892 19.2254 24.2646 18.62L29.5324 11.9126Z" fill="#F35F0B"/>
<path d="M24.0557 23.0612C23.6982 22.3795 24.2126 21.5663 24.9818 21.5975L27.4322 21.6969C28.2013 21.7281 28.6483 22.5802 28.2367 23.2307L26.9255 25.3031C26.5139 25.9537 25.5525 25.9147 25.1949 25.233L24.0557 23.0612Z" fill="#1F3DDE"/>
<path d="M21.7396 7.31685C22.4206 6.95797 23.2348 7.47091 23.2051 8.24013L22.8711 16.8854C22.8414 17.6547 21.9901 18.1033 21.3388 17.6929L14.0187 13.081C13.3674 12.6707 13.4045 11.7092 14.0856 11.3503L21.7396 7.31685Z" fill="#1F3DDE"/>
<path d="M11.6065 16.0769C11.6616 15.3091 12.5272 14.8888 13.1646 15.3204L16.5087 17.5848C17.1461 18.0164 17.0773 18.9762 16.3848 19.3124L12.7517 21.0763C12.0592 21.4125 11.2625 20.873 11.3175 20.1052L11.6065 16.0769Z" fill="#F35F0B"/>
</svg>
