<svg width="158" height="61" viewBox="0 0 158 61" fill="none" xmlns="http://www.w3.org/2000/svg">
<path d="M39.1937 52.9112C38.1377 52.9112 37.1897 52.8632 36.3497 52.7672C35.5337 52.6712 34.6337 52.4912 33.6497 52.2272C32.5457 51.9392 31.6337 51.5672 30.9137 51.1112C30.1937 50.6312 29.5937 49.9712 29.1137 49.1312C28.6097 48.2912 28.3577 47.2952 28.3577 46.1432V35.8832C28.3577 31.1792 31.9697 28.8272 39.1937 28.8272C41.0417 28.8272 43.5137 29.0912 46.6097 29.6192V33.8312C43.8257 33.1592 41.3777 32.8232 39.2657 32.8232C38.3777 32.8232 37.6817 32.8472 37.1777 32.8952C36.6977 32.9432 36.1937 33.0632 35.6657 33.2552C34.5377 33.6392 33.9737 34.4912 33.9737 35.8112V45.7472C33.9737 47.8592 35.9057 48.9152 39.7697 48.9152C41.4257 48.9152 43.7537 48.5672 46.7537 47.8712V52.1192C44.1857 52.6472 41.6657 52.9112 39.1937 52.9112ZM50.3421 29.1872H58.3341L64.0941 45.8912L69.7821 29.1872H77.3061V52.5512H72.2301V35.2712H72.1221L66.2181 52.5512H61.7181L55.6341 35.2712H55.4901V52.5512H50.3421V29.1872Z" fill="#101011"/>
<path d="M89.8943 52.9112C87.6623 52.9112 84.9023 52.6952 81.6143 52.2632V47.9792C85.6943 48.6032 88.4783 48.9152 89.9663 48.9152C93.0863 48.9152 94.6463 48.1112 94.6463 46.5032V44.9912C94.6463 44.2232 94.4183 43.6352 93.9623 43.2272C93.5303 42.8192 92.7383 42.6152 91.5863 42.6152H88.8503C83.7143 42.6152 81.1463 40.5752 81.1463 36.4952V34.7672C81.1463 32.7272 81.9983 31.2272 83.7023 30.2672C85.4063 29.3072 88.1063 28.8272 91.8023 28.8272C93.7223 28.8272 96.1583 28.9832 99.1103 29.2952V33.4712C95.4863 33.0392 92.9903 32.8232 91.6223 32.8232C89.7263 32.8232 88.4543 32.9792 87.8063 33.2912C87.1103 33.6272 86.7623 34.1552 86.7623 34.8752V36.5312C86.7623 37.7552 87.7943 38.3672 89.8583 38.3672H92.6663C95.3303 38.3672 97.2623 38.8592 98.4623 39.8432C99.6623 40.8272 100.262 42.3272 100.262 44.3432V45.8912C100.262 48.6752 99.2663 50.5592 97.2743 51.5432C96.3143 52.0472 95.2463 52.3952 94.0703 52.5872C92.9183 52.8032 91.5263 52.9112 89.8943 52.9112Z" fill="#1F3DDE"/>
<path d="M103.446 47.5832H109.062V52.5512H103.446V47.5832ZM113.377 29.1872H122.845C125.077 29.1872 126.793 29.3552 127.993 29.6912C129.217 30.0032 130.081 30.5192 130.585 31.2392C131.089 31.9352 131.341 32.9192 131.341 34.1912V37.0712C131.341 37.7192 131.077 38.3312 130.549 38.9072C130.045 39.4832 129.445 39.8792 128.749 40.0952V40.2752C129.661 40.3712 130.489 40.7672 131.233 41.4632C132.001 42.1352 132.385 42.8912 132.385 43.7312V47.3312C132.385 49.2272 131.629 50.5712 130.117 51.3632C128.605 52.1552 126.265 52.5512 123.097 52.5512H113.377V29.1872ZM122.845 38.6912C123.733 38.6912 124.393 38.6192 124.825 38.4752C125.257 38.3312 125.545 38.1032 125.689 37.7912C125.857 37.4552 125.941 36.9752 125.941 36.3512V35.1992C125.941 34.6472 125.869 34.2392 125.725 33.9752C125.581 33.6872 125.281 33.4832 124.825 33.3632C124.393 33.2432 123.697 33.1832 122.737 33.1832H118.993V38.6912H122.845ZM122.989 48.5552C124.357 48.5552 125.329 48.3992 125.905 48.0872C126.481 47.7752 126.769 47.2712 126.769 46.5752V44.7032C126.769 43.8392 126.541 43.2272 126.085 42.8672C125.653 42.5072 124.873 42.3272 123.745 42.3272H118.993V48.5552H122.989ZM142.457 43.1912L133.997 29.1872H140.369L145.301 38.3312L150.197 29.1872H156.605L148.073 43.1192V52.5512H142.457V43.1912Z" fill="black"/>
<path d="M22.3926 23.1768C23.1061 22.9672 23.7559 23.6725 23.5624 24.4463L21.0978 34.301C20.9042 35.0749 20.0122 35.3368 19.4924 34.7723L12.8745 27.5858C12.3548 27.0215 12.5968 26.0545 13.3101 25.8449L22.3926 23.1768Z" fill="#3705C6"/>
<path d="M30.4199 13.79C30.8778 13.1545 31.7946 13.292 32.0656 14.0368L35.2236 22.7164C35.4934 23.458 34.9199 24.2455 34.1905 24.1348L25.7059 22.8479C24.9778 22.7375 24.6381 21.8143 25.0933 21.1826L30.4199 13.79Z" fill="#F35F0B"/>
<path d="M24.8922 25.8313C24.5528 25.1235 25.048 24.2758 25.7841 24.3048L28.3418 24.4055C29.0786 24.4345 29.504 25.3199 29.1073 25.9987L27.729 28.3577C27.3324 29.0366 26.4114 28.9995 26.0717 28.291L24.8922 25.8313Z" fill="#1F3DDE"/>
<path d="M22.6889 8.84819C23.3427 8.47139 24.1211 9.00247 24.0895 9.80365L23.7152 19.2778C23.6836 20.0782 22.8669 20.548 22.2449 20.1236L14.8887 15.1052C14.2667 14.6808 14.3054 13.6804 14.9585 13.3039L22.6889 8.84819Z" fill="#1F3DDE"/>
<path d="M12.5513 18.2922C12.6074 17.4943 13.4381 17.0534 14.0475 17.4983L17.4706 19.9973C18.081 20.443 18.0109 21.4425 17.3446 21.7949L13.6069 23.7717C12.9415 24.1236 12.1806 23.5662 12.2367 22.768L12.5513 18.2922Z" fill="#F35F0B"/>
</svg>
