<svg width="157" height="66" viewBox="0 0 157 66" fill="none" xmlns="http://www.w3.org/2000/svg">
<path d="M38.3393 50.6262C37.2833 50.6262 36.3353 50.5782 35.4953 50.4822C34.6793 50.3862 33.7793 50.2062 32.7953 49.9422C31.6913 49.6542 30.7793 49.2822 30.0593 48.8262C29.3393 48.3462 28.7393 47.6862 28.2593 46.8462C27.7553 46.0062 27.5033 45.0102 27.5033 43.8582V33.5982C27.5033 28.8942 31.1153 26.5422 38.3393 26.5422C40.1873 26.5422 42.6593 26.8062 45.7553 27.3342V31.5462C42.9713 30.8742 40.5233 30.5382 38.4113 30.5382C37.5233 30.5382 36.8273 30.5622 36.3233 30.6102C35.8433 30.6582 35.3393 30.7782 34.8113 30.9702C33.6833 31.3542 33.1193 32.2062 33.1193 33.5262V43.4622C33.1193 45.5742 35.0513 46.6302 38.9153 46.6302C40.5713 46.6302 42.8993 46.2822 45.8993 45.5862V49.8342C43.3313 50.3622 40.8113 50.6262 38.3393 50.6262ZM49.4878 26.9022H57.4798L63.2398 43.6062L68.9278 26.9022H76.4518V50.2662H71.3758V32.9862H71.2678L65.3638 50.2662H60.8638L54.7798 32.9862H54.6358V50.2662H49.4878V26.9022Z" fill="#101011"/>
<path d="M89.04 50.6262C86.808 50.6262 84.048 50.4102 80.76 49.9782V45.6942C84.84 46.3182 87.624 46.6302 89.112 46.6302C92.232 46.6302 93.792 45.8262 93.792 44.2182V42.7062C93.792 41.9382 93.564 41.3502 93.108 40.9422C92.676 40.5342 91.884 40.3302 90.732 40.3302H87.996C82.86 40.3302 80.292 38.2902 80.292 34.2102V32.4822C80.292 30.4422 81.144 28.9422 82.848 27.9822C84.552 27.0222 87.252 26.5422 90.948 26.5422C92.868 26.5422 95.304 26.6982 98.256 27.0102V31.1862C94.632 30.7542 92.136 30.5382 90.768 30.5382C88.872 30.5382 87.6 30.6942 86.952 31.0062C86.256 31.3422 85.908 31.8702 85.908 32.5902V34.2462C85.908 35.4702 86.94 36.0822 89.004 36.0822H91.812C94.476 36.0822 96.408 36.5742 97.608 37.5582C98.808 38.5422 99.408 40.0422 99.408 42.0582V43.6062C99.408 46.3902 98.412 48.2742 96.42 49.2582C95.46 49.7622 94.392 50.1102 93.216 50.3022C92.064 50.5182 90.672 50.6262 89.04 50.6262Z" fill="#1F3DDE"/>
<path d="M102.592 45.2982H108.208V50.2662H102.592V45.2982ZM112.523 26.9022H121.991C124.223 26.9022 125.939 27.0702 127.139 27.4062C128.363 27.7182 129.227 28.2342 129.731 28.9542C130.235 29.6502 130.487 30.6342 130.487 31.9062V34.7862C130.487 35.4342 130.223 36.0462 129.695 36.6222C129.191 37.1982 128.591 37.5942 127.895 37.8102V37.9902C128.807 38.0862 129.635 38.4822 130.379 39.1782C131.147 39.8502 131.531 40.6062 131.531 41.4462V45.0462C131.531 46.9422 130.775 48.2862 129.263 49.0782C127.751 49.8702 125.411 50.2662 122.243 50.2662H112.523V26.9022ZM121.991 36.4062C122.879 36.4062 123.539 36.3342 123.971 36.1902C124.403 36.0462 124.691 35.8182 124.835 35.5062C125.003 35.1702 125.087 34.6902 125.087 34.0662V32.9142C125.087 32.3622 125.015 31.9542 124.871 31.6902C124.727 31.4022 124.427 31.1982 123.971 31.0782C123.539 30.9582 122.843 30.8982 121.883 30.8982H118.139V36.4062H121.991ZM122.135 46.2702C123.503 46.2702 124.475 46.1142 125.051 45.8022C125.627 45.4902 125.915 44.9862 125.915 44.2902V42.4182C125.915 41.5542 125.687 40.9422 125.231 40.5822C124.799 40.2222 124.019 40.0422 122.891 40.0422H118.139V46.2702H122.135ZM141.602 40.9062L133.142 26.9022H139.514L144.446 36.0462L149.342 26.9022H155.75L147.218 40.8342V50.2662H141.602V40.9062Z" fill="black"/>
<path d="M21.4389 20.5814C22.1826 20.3824 22.8627 21.0631 22.6632 21.8066L20.2471 30.8106C20.0476 31.5541 19.1181 31.8028 18.574 31.2583L11.9843 24.6639C11.4402 24.1193 11.6895 23.19 12.4332 22.991L21.4389 20.5814Z" fill="#3705C6"/>
<path d="M29.5325 11.9126C30.008 11.3072 30.9605 11.4435 31.2471 12.158L34.4219 20.0737C34.7085 20.7882 34.1142 21.545 33.3521 21.4359L24.9095 20.2275C24.1475 20.1185 23.7892 19.2254 24.2647 18.62L29.5325 11.9126Z" fill="#F35F0B"/>
<path d="M24.0558 23.0612C23.6982 22.3795 24.2127 21.5663 24.9819 21.5975L27.4323 21.6969C28.2014 21.7281 28.6484 22.5802 28.2368 23.2307L26.9256 25.3031C26.514 25.9537 25.5525 25.9147 25.195 25.233L24.0558 23.0612Z" fill="#1F3DDE"/>
<path d="M21.7394 7.31685C22.4204 6.95797 23.2345 7.47091 23.2048 8.24013L22.8709 16.8854C22.8411 17.6547 21.9899 18.1033 21.3386 17.6929L14.0185 13.081C13.3672 12.6707 13.4043 11.7092 14.0853 11.3503L21.7394 7.31685Z" fill="#1F3DDE"/>
<path d="M11.6065 16.0769C11.6616 15.3091 12.5273 14.8888 13.1647 15.3204L16.5088 17.5848C17.1462 18.0164 17.0773 18.9762 16.3848 19.3124L12.7518 21.0763C12.0593 21.4125 11.2625 20.873 11.3176 20.1052L11.6065 16.0769Z" fill="#F35F0B"/>
<path d="M36.3964 63.8017L36.3964 57.9835L38.1009 57.9835C38.4267 57.9835 38.7146 58.0564 38.9646 58.2023C39.2165 58.3481 39.4134 58.5489 39.5555 58.8045C39.6994 59.0602 39.7714 59.3547 39.7714 59.6881C39.7714 60.0176 39.6994 60.3102 39.5555 60.5659C39.4134 60.8197 39.2165 61.0195 38.9646 61.1653C38.7146 61.3093 38.4267 61.3812 38.1009 61.3812L36.4873 61.3812L36.4873 61.1994L38.1009 61.1994C38.3926 61.1994 38.6502 61.135 38.8737 61.0062C39.0972 60.8775 39.2723 60.6994 39.3992 60.4722C39.5261 60.2449 39.5896 59.9835 39.5896 59.6881C39.5896 59.3907 39.5261 59.1275 39.3992 58.8983C39.2723 58.6691 39.0972 58.4901 38.8737 58.3614C38.6502 58.2307 38.3926 58.1653 38.1009 58.1653L36.5782 58.1653L36.5782 63.8017L36.3964 63.8017ZM42.7011 63.8926C42.3204 63.8926 41.9871 63.7932 41.7011 63.5943C41.417 63.3954 41.1963 63.1256 41.0392 62.7847C40.882 62.4437 40.8034 62.0593 40.8034 61.6312C40.8034 61.2032 40.882 60.8187 41.0392 60.4778C41.1982 60.1369 41.4142 59.867 41.6869 59.6682C41.9596 59.4693 42.2674 59.3699 42.6102 59.3699C42.864 59.3699 43.0988 59.4239 43.3147 59.5318C43.5325 59.6398 43.7219 59.7894 43.8829 59.9807C44.0439 60.172 44.1689 60.3926 44.2579 60.6426C44.3488 60.8907 44.3943 61.1559 44.3943 61.4381L44.3943 61.6199L40.8943 61.6199L40.8943 61.4381L44.2124 61.4381C44.2124 61.0877 44.1405 60.7704 43.9965 60.4864C43.8526 60.2004 43.6594 59.9731 43.417 59.8045C43.1746 59.636 42.9056 59.5517 42.6102 59.5517C42.3109 59.5517 42.0401 59.6407 41.7977 59.8187C41.5552 59.9968 41.3611 60.2392 41.2153 60.546C41.0695 60.8528 40.9927 61.1994 40.9852 61.5858L40.9852 61.6085C40.9852 61.9892 41.0515 62.3396 41.184 62.6597C41.3185 62.9778 41.5136 63.2326 41.7693 63.4239C42.0249 63.6151 42.3356 63.7108 42.7011 63.7108C42.97 63.7108 43.1954 63.6634 43.3772 63.5687C43.5609 63.474 43.7077 63.3651 43.8176 63.242C43.9293 63.1189 44.0117 63.0138 44.0647 62.9267L44.2124 63.029C44.1481 63.1388 44.0515 63.261 43.9227 63.3954C43.7939 63.5299 43.6291 63.6464 43.4284 63.7449C43.2276 63.8434 42.9852 63.8926 42.7011 63.8926ZM45.6819 59.4381L45.8637 59.4381L45.8637 63.6199L47.9319 63.6199L47.9319 59.4381L48.1137 59.4381L48.1137 63.6199L50.1819 63.6199L50.1819 59.4381L50.3637 59.4381L50.3637 63.8017L45.6819 63.8017L45.6819 59.4381ZM53.5683 63.8926C53.1876 63.8926 52.8543 63.7932 52.5683 63.5943C52.2842 63.3954 52.0635 63.1256 51.9063 62.7847C51.7491 62.4437 51.6705 62.0593 51.6705 61.6312C51.6705 61.2032 51.7491 60.8187 51.9063 60.4778C52.0654 60.1369 52.2813 59.867 52.5541 59.6682C52.8268 59.4693 53.1346 59.3699 53.4774 59.3699C53.7311 59.3699 53.966 59.4239 54.1819 59.5318C54.3997 59.6398 54.5891 59.7894 54.7501 59.9807C54.9111 60.172 55.0361 60.3926 55.1251 60.6426C55.216 60.8907 55.2615 61.1559 55.2615 61.4381L55.2615 61.6199L51.7615 61.6199L51.7615 61.4381L55.0796 61.4381C55.0796 61.0877 55.0077 60.7704 54.8637 60.4864C54.7198 60.2004 54.5266 59.9731 54.2842 59.8045C54.0418 59.636 53.7728 59.5517 53.4774 59.5517C53.1781 59.5517 52.9073 59.6407 52.6649 59.8187C52.4224 59.9968 52.2283 60.2392 52.0825 60.546C51.9366 60.8528 51.8599 61.1994 51.8524 61.5858L51.8524 61.6085C51.8524 61.9892 51.9186 62.3396 52.0512 62.6597C52.1857 62.9778 52.3808 63.2326 52.6365 63.4239C52.8921 63.6151 53.2027 63.7108 53.5683 63.7108C53.8372 63.7108 54.0626 63.6634 54.2444 63.5687C54.4281 63.474 54.5749 63.3651 54.6847 63.242C54.7965 63.1189 54.8789 63.0138 54.9319 62.9267L55.0796 63.029C55.0152 63.1388 54.9186 63.261 54.7899 63.3954C54.6611 63.5299 54.4963 63.6464 54.2955 63.7449C54.0948 63.8434 53.8524 63.8926 53.5683 63.8926ZM59.5491 61.529L59.5491 61.7108L56.6684 61.7108L56.6684 61.529L59.5491 61.529ZM56.7309 59.4381L56.7309 63.8017L56.5491 63.8017L56.5491 59.4381L56.7309 59.4381ZM59.6457 59.4381L59.6457 63.8017L59.4639 63.8017L59.4639 59.4381L59.6457 59.4381ZM61.395 63.6199L64.0995 59.4381L64.3722 59.4381L64.3722 63.8017L64.1904 63.8017L64.1904 59.6199L61.4859 63.8017L61.2132 63.8017L61.2132 59.4381L61.395 59.4381L61.395 63.6199ZM67.5526 63.8926C67.172 63.8926 66.8386 63.7932 66.5526 63.5943C66.2686 63.3954 66.0479 63.1256 65.8907 62.7847C65.7335 62.4437 65.6549 62.0593 65.6549 61.6312C65.6549 61.2032 65.7335 60.8187 65.8907 60.4778C66.0498 60.1369 66.2657 59.867 66.5384 59.6682C66.8112 59.4693 67.1189 59.3699 67.4617 59.3699C67.7155 59.3699 67.9504 59.4239 68.1663 59.5318C68.3841 59.6398 68.5735 59.7894 68.7345 59.9807C68.8954 60.172 69.0204 60.3926 69.1095 60.6426C69.2004 60.8907 69.2458 61.1559 69.2458 61.4381L69.2458 61.6199L65.7458 61.6199L65.7458 61.4381L69.064 61.4381C69.064 61.0877 68.992 60.7704 68.8481 60.4864C68.7042 60.2004 68.511 59.9731 68.2686 59.8045C68.0261 59.636 67.7572 59.5517 67.4617 59.5517C67.1625 59.5517 66.8917 59.6407 66.6492 59.8187C66.4068 59.9968 66.2127 60.2392 66.0669 60.546C65.921 60.8528 65.8443 61.1994 65.8367 61.5858L65.8367 61.6085C65.8367 61.9892 65.903 62.3396 66.0356 62.6597C66.1701 62.9778 66.3651 63.2326 66.6208 63.4239C66.8765 63.6151 67.1871 63.7108 67.5526 63.7108C67.8216 63.7108 68.047 63.6634 68.2288 63.5687C68.4125 63.474 68.5593 63.3651 68.6691 63.242C68.7809 63.1189 68.8633 63.0138 68.9163 62.9267L69.064 63.029C68.9996 63.1388 68.903 63.261 68.7742 63.3954C68.6454 63.5299 68.4807 63.6464 68.2799 63.7449C68.0792 63.8434 67.8367 63.8926 67.5526 63.8926ZM75.7835 61.529L75.7835 61.7108L72.9028 61.7108L72.9028 61.529L75.7835 61.529ZM72.9653 59.4381L72.9653 63.8017L72.7835 63.8017L72.7835 59.4381L72.9653 59.4381ZM75.8801 59.4381L75.8801 63.8017L75.6982 63.8017L75.6982 59.4381L75.8801 59.4381ZM78.5384 63.8926C78.2998 63.8926 78.0792 63.8434 77.8765 63.7449C77.6758 63.6464 77.5138 63.5025 77.3907 63.3131C77.2695 63.1237 77.2089 62.8926 77.2089 62.6199C77.2089 62.4722 77.2326 62.3339 77.2799 62.2051C77.3273 62.0744 77.4106 61.9561 77.5299 61.85C77.6492 61.7439 77.8159 61.653 78.0299 61.5773C78.2458 61.5015 78.5214 61.4437 78.8566 61.404C79.0574 61.3812 79.2468 61.3547 79.4248 61.3244C79.6028 61.2941 79.7477 61.2487 79.8595 61.1881C79.9712 61.1275 80.0271 61.0403 80.0271 60.9267L80.0271 60.6653C80.0271 60.3301 79.9144 60.0612 79.689 59.8585C79.4636 59.654 79.1634 59.5517 78.7884 59.5517C78.4816 59.5517 78.2136 59.6199 77.9845 59.7562C77.7553 59.8907 77.5953 60.0801 77.5044 60.3244L77.3339 60.2562C77.4021 60.0744 77.5072 59.9172 77.6492 59.7847C77.7913 59.6521 77.9598 59.5498 78.1549 59.4778C78.35 59.4059 78.5612 59.3699 78.7884 59.3699C79.01 59.3699 79.2079 59.403 79.3822 59.4693C79.5583 59.5337 79.7079 59.6246 79.8311 59.742C79.9542 59.8576 80.0479 59.9939 80.1123 60.1511C80.1767 60.3083 80.2089 60.4797 80.2089 60.6653L80.2089 63.8017L80.0271 63.8017L80.0271 62.9153L80.0044 62.9153C79.9134 63.1123 79.7951 63.2847 79.6492 63.4324C79.5053 63.5782 79.3386 63.6918 79.1492 63.7733C78.9617 63.8528 78.7581 63.8926 78.5384 63.8926ZM78.5384 63.7108C78.815 63.7108 79.0659 63.6369 79.2913 63.4892C79.5167 63.3396 79.6956 63.1322 79.8282 62.867C79.9608 62.6 80.0271 62.2903 80.0271 61.9381L80.0271 61.279C79.974 61.3187 79.9097 61.3538 79.8339 61.3841C79.76 61.4144 79.6758 61.4418 79.5811 61.4665C79.4883 61.4892 79.3869 61.5091 79.2771 61.5261C79.1672 61.5432 79.0498 61.5593 78.9248 61.5744C78.5347 61.6199 78.2278 61.689 78.0044 61.7818C77.7809 61.8746 77.6227 61.9911 77.5299 62.1312C77.4371 62.2714 77.3907 62.4343 77.3907 62.6199C77.3907 62.9494 77.5006 63.2136 77.7203 63.4125C77.9419 63.6114 78.2146 63.7108 78.5384 63.7108ZM84.0257 63.8017L84.0257 59.4381L84.2075 59.4381L84.2075 61.529L84.7416 61.529L86.4688 59.4381L86.7075 59.4381L84.9802 61.529L86.7757 63.8017L86.5427 63.8017L84.895 61.7108L84.2075 61.7108L84.2075 63.8017L84.0257 63.8017ZM88.9134 63.8926C88.6748 63.8926 88.4542 63.8434 88.2515 63.7449C88.0508 63.6464 87.8888 63.5025 87.7657 63.3131C87.6445 63.1237 87.5839 62.8926 87.5839 62.6199C87.5839 62.4722 87.6076 62.3339 87.6549 62.2051C87.7023 62.0744 87.7856 61.9561 87.9049 61.85C88.0242 61.7439 88.1909 61.653 88.4049 61.5773C88.6208 61.5015 88.8964 61.4437 89.2316 61.404C89.4324 61.3812 89.6218 61.3547 89.7998 61.3244C89.9778 61.2941 90.1227 61.2487 90.2345 61.1881C90.3462 61.1275 90.4021 61.0403 90.4021 60.9267L90.4021 60.6653C90.4021 60.3301 90.2894 60.0612 90.064 59.8585C89.8386 59.654 89.5384 59.5517 89.1634 59.5517C88.8566 59.5517 88.5886 59.6199 88.3595 59.7562C88.1303 59.8907 87.9703 60.0801 87.8794 60.3244L87.7089 60.2562C87.7771 60.0744 87.8822 59.9172 88.0242 59.7847C88.1663 59.6521 88.3348 59.5498 88.5299 59.4778C88.725 59.4059 88.9362 59.3699 89.1634 59.3699C89.385 59.3699 89.5829 59.403 89.7572 59.4693C89.9333 59.5337 90.0829 59.6246 90.2061 59.742C90.3292 59.8576 90.4229 59.9939 90.4873 60.1511C90.5517 60.3083 90.5839 60.4797 90.5839 60.6653L90.5839 63.8017L90.4021 63.8017L90.4021 62.9153L90.3794 62.9153C90.2884 63.1123 90.1701 63.2847 90.0242 63.4324C89.8803 63.5782 89.7136 63.6918 89.5242 63.7733C89.3367 63.8528 89.1331 63.8926 88.9134 63.8926ZM88.9134 63.7108C89.19 63.7108 89.4409 63.6369 89.6663 63.4892C89.8917 63.3396 90.0706 63.1322 90.2032 62.867C90.3358 62.6 90.4021 62.2903 90.4021 61.9381L90.4021 61.279C90.349 61.3187 90.2847 61.3538 90.2089 61.3841C90.135 61.4144 90.0508 61.4418 89.9561 61.4665C89.8633 61.4892 89.7619 61.5091 89.6521 61.5261C89.5422 61.5432 89.4248 61.5593 89.2998 61.5744C88.9097 61.6199 88.6028 61.689 88.3794 61.7818C88.1559 61.8746 87.9977 61.9911 87.9049 62.1312C87.8121 62.2714 87.7657 62.4343 87.7657 62.6199C87.7657 62.9494 87.8756 63.2136 88.0953 63.4125C88.3169 63.6114 88.5896 63.7108 88.9134 63.7108ZM91.8779 63.8017L94.1166 61.6199L91.912 59.4381L92.1677 59.4381L94.2813 61.529L94.4347 61.529L94.4347 59.4381L94.6166 59.4381L94.6166 61.529L94.77 61.529L96.8836 59.4381L97.1393 59.4381L94.9347 61.6199L97.1734 63.8017L96.912 63.8017L94.77 61.7108L94.6166 61.7108L94.6166 63.8017L94.4347 63.8017L94.4347 61.7108L94.2813 61.7108L92.1393 63.8017L91.8779 63.8017ZM97.8339 65.029L97.8339 63.6199L98.2373 63.6199C98.3415 63.4873 98.4343 63.3453 98.5157 63.1937C98.5972 63.0403 98.6672 62.8756 98.7259 62.6994C98.7865 62.5214 98.8367 62.3301 98.8765 62.1256C98.9182 61.9191 98.9494 61.6975 98.9703 61.4608L99.1521 59.4381L101.357 59.4381L101.357 63.6199L101.959 63.6199L101.959 65.029L101.777 65.029L101.777 63.8017L98.0157 63.8017L98.0157 65.029L97.8339 65.029ZM98.4646 63.6199L101.175 63.6199L101.175 59.6199L99.3169 59.6199L99.1521 61.4608C99.1104 61.9229 99.0347 62.3254 98.9248 62.6682C98.815 63.011 98.6615 63.3282 98.4646 63.6199ZM103.19 61.3358L104.519 61.3358C104.97 61.3358 105.325 61.4333 105.585 61.6284C105.844 61.8235 105.974 62.135 105.974 62.5631C105.974 62.8509 105.915 63.0867 105.798 63.2704C105.68 63.4523 105.513 63.5867 105.295 63.6739C105.077 63.7591 104.819 63.8017 104.519 63.8017L103.087 63.8017L103.087 59.4381L103.269 59.4381L103.269 63.6199L104.519 63.6199C104.915 63.6199 105.226 63.5394 105.451 63.3784C105.678 63.2155 105.792 62.9437 105.792 62.5631C105.792 62.19 105.678 61.9229 105.451 61.7619C105.226 61.599 104.915 61.5176 104.519 61.5176L103.19 61.5176L103.19 61.3358ZM106.792 63.8017L106.792 59.4381L106.974 59.4381L106.974 63.8017L106.792 63.8017ZM108.723 63.6199L111.428 59.4381L111.7 59.4381L111.7 63.8017L111.519 63.8017L111.519 59.6199L108.814 63.8017L108.541 63.8017L108.541 59.4381L108.723 59.4381L108.723 63.6199ZM110.575 57.9835L110.757 57.9835C110.757 58.1843 110.7 58.3424 110.587 58.4579C110.475 58.5735 110.32 58.6312 110.121 58.6312C109.922 58.6312 109.766 58.5735 109.652 58.4579C109.54 58.3424 109.484 58.1843 109.484 57.9835L109.666 57.9835C109.666 58.1331 109.705 58.2487 109.783 58.3301C109.86 58.4097 109.973 58.4494 110.121 58.4494C110.269 58.4494 110.381 58.4097 110.459 58.3301C110.537 58.2487 110.575 58.1331 110.575 57.9835ZM114.881 65.029L114.881 63.6199L115.284 63.6199C115.388 63.4873 115.481 63.3453 115.563 63.1937C115.644 63.0403 115.714 62.8756 115.773 62.6994C115.833 62.5214 115.884 62.3301 115.923 62.1256C115.965 61.9191 115.996 61.6975 116.017 61.4608L116.199 59.4381L118.403 59.4381L118.403 63.6199L119.006 63.6199L119.006 65.029L118.824 65.029L118.824 63.8017L115.063 63.8017L115.063 65.029L114.881 65.029ZM115.511 63.6199L118.222 63.6199L118.222 59.6199L116.364 59.6199L116.199 61.4608C116.157 61.9229 116.082 62.3254 115.972 62.6682C115.862 63.011 115.708 63.3282 115.511 63.6199ZM121.748 63.8926C121.367 63.8926 121.034 63.7932 120.748 63.5943C120.464 63.3954 120.243 63.1256 120.086 62.7847C119.929 62.4437 119.85 62.0593 119.85 61.6312C119.85 61.2032 119.929 60.8187 120.086 60.4778C120.245 60.1369 120.461 59.867 120.734 59.6682C121.006 59.4693 121.314 59.3699 121.657 59.3699C121.911 59.3699 122.146 59.4239 122.362 59.5318C122.579 59.6398 122.769 59.7894 122.93 59.9807C123.091 60.172 123.216 60.3926 123.305 60.6426C123.396 60.8907 123.441 61.1559 123.441 61.4381L123.441 61.6199L119.941 61.6199L119.941 61.4381L123.259 61.4381C123.259 61.0877 123.187 60.7704 123.043 60.4864C122.899 60.2004 122.706 59.9731 122.464 59.8045C122.221 59.636 121.953 59.5517 121.657 59.5517C121.358 59.5517 121.087 59.6407 120.845 59.8187C120.602 59.9968 120.408 60.2392 120.262 60.546C120.116 60.8528 120.04 61.1994 120.032 61.5858L120.032 61.6085C120.032 61.9892 120.098 62.3396 120.231 62.6597C120.365 62.9778 120.56 63.2326 120.816 63.4239C121.072 63.6151 121.382 63.7108 121.748 63.7108C122.017 63.7108 122.242 63.6634 122.424 63.5687C122.608 63.474 122.755 63.3651 122.864 63.242C122.976 63.1189 123.059 63.0138 123.112 62.9267L123.259 63.029C123.195 63.1388 123.098 63.261 122.97 63.3954C122.841 63.5299 122.676 63.6464 122.475 63.7449C122.274 63.8434 122.032 63.8926 121.748 63.8926ZM127.729 61.529L127.729 61.7108L124.848 61.7108L124.848 61.529L127.729 61.529ZM124.911 59.4381L124.911 63.8017L124.729 63.8017L124.729 59.4381L124.911 59.4381ZM127.825 59.4381L127.825 63.8017L127.644 63.8017L127.644 59.4381L127.825 59.4381ZM129.495 61.3358L130.825 61.3358C131.275 61.3358 131.631 61.4333 131.89 61.6284C132.149 61.8235 132.279 62.135 132.279 62.5631C132.279 62.8509 132.22 63.0867 132.103 63.2704C131.986 63.4523 131.818 63.5867 131.6 63.6739C131.382 63.7591 131.124 63.8017 130.825 63.8017L129.393 63.8017L129.393 59.4381L129.575 59.4381L129.575 63.6199L130.825 63.6199C131.22 63.6199 131.531 63.5394 131.756 63.3784C131.984 63.2155 132.097 62.9437 132.097 62.5631C132.097 62.19 131.984 61.9229 131.756 61.7619C131.531 61.599 131.22 61.5176 130.825 61.5176L129.495 61.5176L129.495 61.3358Z" fill="#606060"/>
</svg>
