<svg width="149" height="30" viewBox="0 0 149 30" fill="none" xmlns="http://www.w3.org/2000/svg">
<path d="M7.14286 9.42857H22.8571V8H7.14286V9.42857ZM23.5714 10.1429V20.1429H25V10.1429H23.5714ZM22.8571 20.8571H7.14286V22.2857H22.8571V20.8571ZM6.42857 20.1429V10.1429H5V20.1429H6.42857ZM7.14286 20.8571C6.95342 20.8571 6.77174 20.7819 6.63778 20.6479C6.50383 20.514 6.42857 20.3323 6.42857 20.1429H5C5 20.7112 5.22576 21.2562 5.62763 21.6581C6.02949 22.06 6.57454 22.2857 7.14286 22.2857V20.8571ZM23.5714 20.1429C23.5714 20.3323 23.4962 20.514 23.3622 20.6479C23.2283 20.7819 23.0466 20.8571 22.8571 20.8571V22.2857C23.4255 22.2857 23.9705 22.06 24.3724 21.6581C24.7742 21.2562 25 20.7112 25 20.1429H23.5714ZM22.8571 9.42857C23.0466 9.42857 23.2283 9.50383 23.3622 9.63778C23.4962 9.77174 23.5714 9.95342 23.5714 10.1429H25C25 9.57454 24.7742 9.02949 24.3724 8.62763C23.9705 8.22576 23.4255 8 22.8571 8V9.42857ZM7.14286 8C6.57454 8 6.02949 8.22576 5.62763 8.62763C5.22576 9.02949 5 9.57454 5 10.1429H6.42857C6.42857 9.95342 6.50383 9.77174 6.63778 9.63778C6.77174 9.50383 6.95342 9.42857 7.14286 9.42857V8ZM5.30714 10.73L13.78 16.5957L14.5936 15.4214L6.12071 9.55571L5.30714 10.73ZM16.22 16.5957L24.6921 10.73L23.8793 9.55571L15.4064 15.4214L16.22 16.5957ZM13.78 16.5957C14.1384 16.8439 14.564 16.9769 15 16.9769C15.436 16.9769 15.8616 16.8439 16.22 16.5957L15.4064 15.4214C15.287 15.5041 15.1452 15.5483 15 15.5483C14.8548 15.5483 14.713 15.5041 14.5936 15.4214L13.78 16.5957Z" fill="black"/>
<path d="M40.3807 23V13.1818H41.8892V23H40.3807ZM41.1477 11.5455C40.8537 11.5455 40.6001 11.4453 40.3871 11.245C40.1783 11.0447 40.0739 10.804 40.0739 10.5227C40.0739 10.2415 40.1783 10.0007 40.3871 9.80043C40.6001 9.60014 40.8537 9.5 41.1477 9.5C41.4418 9.5 41.6932 9.60014 41.902 9.80043C42.1151 10.0007 42.2216 10.2415 42.2216 10.5227C42.2216 10.804 42.1151 11.0447 41.902 11.245C41.6932 11.4453 41.4418 11.5455 41.1477 11.5455ZM46.1607 17.0938V23H44.6522V13.1818H46.1096V14.7159H46.2374C46.4675 14.2173 46.8169 13.8168 47.2857 13.5142C47.7544 13.2074 48.3596 13.054 49.101 13.054C49.7658 13.054 50.3475 13.1903 50.8461 13.4631C51.3446 13.7315 51.7324 14.1406 52.0094 14.6903C52.2864 15.2358 52.4249 15.9261 52.4249 16.7614V23H50.9164V16.8636C50.9164 16.0923 50.7161 15.4915 50.3155 15.0611C49.915 14.6264 49.3652 14.4091 48.6664 14.4091C48.1848 14.4091 47.7544 14.5135 47.3752 14.7223C47.0002 14.9311 46.704 15.2358 46.4867 15.6364C46.2694 16.0369 46.1607 16.5227 46.1607 17.0938ZM59.5536 13.1818V14.4602H54.261V13.1818H59.5536ZM55.8462 23V11.8267C55.8462 11.2642 55.9783 10.7955 56.2425 10.4205C56.5067 10.0455 56.8498 9.7642 57.2717 9.5767C57.6935 9.3892 58.1388 9.29545 58.6076 9.29545C58.9783 9.29545 59.2809 9.32528 59.5153 9.38494C59.7496 9.4446 59.9244 9.5 60.0394 9.55114L59.6048 10.8551C59.5281 10.8295 59.4215 10.7976 59.2852 10.7592C59.1531 10.7209 58.9783 10.7017 58.761 10.7017C58.2624 10.7017 57.9023 10.8274 57.6808 11.0788C57.4634 11.3303 57.3548 11.6989 57.3548 12.1847V23H55.8462ZM65.2521 23.2045C64.3658 23.2045 63.5881 22.9936 62.919 22.5717C62.2543 22.1499 61.7344 21.5597 61.3594 20.8011C60.9886 20.0426 60.8033 19.1562 60.8033 18.142C60.8033 17.1193 60.9886 16.2266 61.3594 15.4638C61.7344 14.701 62.2543 14.1087 62.919 13.6868C63.5881 13.2649 64.3658 13.054 65.2521 13.054C66.1385 13.054 66.9141 13.2649 67.5788 13.6868C68.2479 14.1087 68.7678 14.701 69.1385 15.4638C69.5135 16.2266 69.701 17.1193 69.701 18.142C69.701 19.1562 69.5135 20.0426 69.1385 20.8011C68.7678 21.5597 68.2479 22.1499 67.5788 22.5717C66.9141 22.9936 66.1385 23.2045 65.2521 23.2045ZM65.2521 21.8494C65.9254 21.8494 66.4794 21.6768 66.9141 21.3317C67.3487 20.9865 67.6705 20.5327 67.8793 19.9702C68.0881 19.4077 68.1925 18.7983 68.1925 18.142C68.1925 17.4858 68.0881 16.8743 67.8793 16.3075C67.6705 15.7408 67.3487 15.2827 66.9141 14.9332C66.4794 14.5838 65.9254 14.4091 65.2521 14.4091C64.5788 14.4091 64.0249 14.5838 63.5902 14.9332C63.1555 15.2827 62.8338 15.7408 62.625 16.3075C62.4162 16.8743 62.3118 17.4858 62.3118 18.142C62.3118 18.7983 62.4162 19.4077 62.625 19.9702C62.8338 20.5327 63.1555 20.9865 63.5902 21.3317C64.0249 21.6768 64.5788 21.8494 65.2521 21.8494ZM79.5463 26.4517C78.2424 26.4517 77.0897 26.2727 76.0882 25.9148C75.0868 25.5611 74.2452 25.0391 73.5634 24.3487C72.8816 23.6584 72.3659 22.8125 72.0165 21.8111C71.6671 20.8097 71.4924 19.6634 71.4924 18.3722C71.4924 17.1236 71.6692 16.0071 72.0229 15.0227C72.3809 14.0384 72.8986 13.2031 73.5762 12.517C74.258 11.8267 75.0847 11.3004 76.0563 10.9382C77.0321 10.576 78.1358 10.3949 79.3674 10.3949C80.5648 10.3949 81.6131 10.5909 82.5123 10.983C83.4157 11.3707 84.1699 11.897 84.775 12.5618C85.3844 13.2223 85.8404 13.9659 86.1429 14.7926C86.4498 15.6193 86.6032 16.4716 86.6032 17.3494C86.6032 17.9673 86.5733 18.5937 86.5137 19.2287C86.454 19.8636 86.3283 20.4474 86.1365 20.9801C85.9448 21.5085 85.6486 21.9347 85.248 22.2585C84.8517 22.5824 84.3148 22.7443 83.6373 22.7443C83.339 22.7443 83.0108 22.6974 82.6529 22.6037C82.2949 22.5099 81.9775 22.3544 81.7005 22.1371C81.4235 21.9197 81.2594 21.6278 81.2083 21.2614H81.1316C81.0293 21.5085 80.8716 21.7429 80.6586 21.9645C80.4498 22.1861 80.1749 22.3629 79.834 22.495C79.4973 22.6271 79.0861 22.6847 78.6003 22.6676C78.0463 22.6463 77.5584 22.5227 77.1365 22.2969C76.7147 22.0668 76.361 21.7557 76.0755 21.3636C75.7942 20.9673 75.5811 20.5092 75.4363 19.9893C75.2956 19.4652 75.2253 18.9006 75.2253 18.2955C75.2253 17.7202 75.3105 17.1939 75.481 16.7166C75.6515 16.2393 75.888 15.8217 76.1905 15.4638C76.4973 15.1058 76.8553 14.8203 77.2644 14.6072C77.6777 14.3899 78.123 14.2557 78.6003 14.2045C79.0265 14.1619 79.4142 14.1811 79.7637 14.2621C80.1131 14.3388 80.4007 14.456 80.6266 14.6136C80.8525 14.767 80.9952 14.9375 81.0549 15.125H81.1316V14.4091H82.4867V20.1875C82.4867 20.5455 82.5868 20.8608 82.7871 21.1335C82.9874 21.4062 83.2793 21.5426 83.6628 21.5426C84.0975 21.5426 84.4299 21.3935 84.66 21.0952C84.8944 20.7969 85.0542 20.3366 85.1394 19.7145C85.2289 19.0923 85.2736 18.2955 85.2736 17.3239C85.2736 16.7528 85.1948 16.1903 85.0371 15.6364C84.8837 15.0781 84.6493 14.5561 84.334 14.0703C84.0229 13.5845 83.6287 13.1562 83.1515 12.7855C82.6742 12.4148 82.1138 12.125 81.4703 11.9162C80.8311 11.7031 80.1046 11.5966 79.2907 11.5966C78.2892 11.5966 77.3922 11.7521 76.5996 12.0632C75.8113 12.37 75.1401 12.8196 74.5861 13.4119C74.0364 14 73.6167 14.7159 73.3269 15.5597C73.0414 16.3991 72.8986 17.3537 72.8986 18.4233C72.8986 19.5099 73.0414 20.4751 73.3269 21.3189C73.6167 22.1626 74.0428 22.8743 74.6053 23.4538C75.1721 24.0334 75.873 24.4723 76.7083 24.7706C77.5435 25.0732 78.5066 25.2244 79.5975 25.2244C80.0662 25.2244 80.5286 25.1797 80.9846 25.0902C81.4405 25.0007 81.8432 24.9027 82.1926 24.7962C82.5421 24.6896 82.7935 24.6108 82.9469 24.5597L83.3049 25.7358C83.0407 25.8466 82.6955 25.9574 82.2694 26.0682C81.8475 26.179 81.3958 26.2706 80.9142 26.343C80.437 26.4155 79.981 26.4517 79.5463 26.4517ZM78.8049 21.3636C79.3759 21.3636 79.8382 21.2486 80.1919 21.0185C80.5456 20.7884 80.8034 20.4411 80.9654 19.9766C81.1273 19.5121 81.2083 18.9261 81.2083 18.2188C81.2083 17.5028 81.1188 16.9446 80.9398 16.544C80.7608 16.1435 80.4966 15.8622 80.1472 15.7003C79.7978 15.5384 79.3674 15.4574 78.856 15.4574C78.3702 15.4574 77.9547 15.5852 77.6096 15.8409C77.2686 16.0923 77.0066 16.429 76.8233 16.8509C76.6444 17.2685 76.5549 17.7244 76.5549 18.2188C76.5549 18.7642 76.6273 19.2777 76.7722 19.7592C76.9171 20.2365 77.1536 20.6243 77.4817 20.9226C77.8098 21.2166 78.2509 21.3636 78.8049 21.3636ZM92.8498 23.2045C91.9293 23.2045 91.1367 22.9872 90.4719 22.5526C89.8072 22.1179 89.2958 21.5192 88.9379 20.7564C88.5799 19.9936 88.4009 19.1222 88.4009 18.142C88.4009 17.1449 88.5842 16.2649 88.9506 15.5021C89.3214 14.7351 89.837 14.1364 90.4975 13.706C91.1623 13.2713 91.9379 13.054 92.8242 13.054C93.5146 13.054 94.1367 13.1818 94.6907 13.4375C95.2447 13.6932 95.6985 14.0511 96.0522 14.5114C96.4059 14.9716 96.6254 15.5085 96.7106 16.1222H95.2021C95.087 15.6747 94.8313 15.2784 94.435 14.9332C94.043 14.5838 93.5146 14.4091 92.8498 14.4091C92.2617 14.4091 91.7461 14.5625 91.3029 14.8693C90.864 15.1719 90.521 15.6001 90.2738 16.1541C90.0309 16.7038 89.9094 17.3494 89.9094 18.0909C89.9094 18.8494 90.0288 19.5099 90.2674 20.0724C90.5103 20.6349 90.8512 21.0717 91.2901 21.3828C91.7333 21.6939 92.2532 21.8494 92.8498 21.8494C93.2418 21.8494 93.5977 21.7812 93.9173 21.6449C94.2369 21.5085 94.5075 21.3125 94.729 21.0568C94.9506 20.8011 95.1083 20.4943 95.2021 20.1364H96.7106C96.6254 20.7159 96.4144 21.2379 96.0778 21.7024C95.7454 22.1626 95.3043 22.5291 94.7546 22.8018C94.2092 23.0703 93.5742 23.2045 92.8498 23.2045ZM98.9158 23V13.1818H100.373V14.7159H100.501C100.706 14.1918 101.036 13.7848 101.492 13.495C101.948 13.201 102.495 13.054 103.135 13.054C103.782 13.054 104.321 13.201 104.752 13.495C105.186 13.7848 105.525 14.1918 105.768 14.7159H105.87C106.122 14.2088 106.499 13.8061 107.002 13.5078C107.505 13.2053 108.108 13.054 108.811 13.054C109.689 13.054 110.407 13.3288 110.965 13.8786C111.523 14.424 111.802 15.2741 111.802 16.429V23H110.294V16.429C110.294 15.7045 110.096 15.1868 109.699 14.8757C109.303 14.5646 108.836 14.4091 108.299 14.4091C107.609 14.4091 107.074 14.6179 106.695 15.0355C106.316 15.4489 106.126 15.973 106.126 16.608V23H104.592V16.2756C104.592 15.7173 104.411 15.2678 104.049 14.9268C103.686 14.5817 103.22 14.4091 102.649 14.4091C102.257 14.4091 101.89 14.5135 101.549 14.7223C101.213 14.9311 100.94 15.2209 100.731 15.5916C100.527 15.9581 100.424 16.3821 100.424 16.8636V23H98.9158ZM121.515 15.3807L120.16 15.7642C120.075 15.5384 119.949 15.3189 119.783 15.1058C119.621 14.8885 119.399 14.7095 119.118 14.5689C118.837 14.4283 118.477 14.358 118.038 14.358C117.437 14.358 116.936 14.4964 116.536 14.7734C116.139 15.0462 115.941 15.3935 115.941 15.8153C115.941 16.1903 116.077 16.4865 116.35 16.7038C116.623 16.9212 117.049 17.1023 117.629 17.2472L119.086 17.6051C119.964 17.8182 120.618 18.1442 121.048 18.5831C121.479 19.0178 121.694 19.5781 121.694 20.2642C121.694 20.8267 121.532 21.3295 121.208 21.7727C120.888 22.2159 120.441 22.5653 119.866 22.821C119.29 23.0767 118.621 23.2045 117.859 23.2045C116.857 23.2045 116.028 22.9872 115.372 22.5526C114.716 22.1179 114.3 21.483 114.126 20.6477L115.558 20.2898C115.694 20.8182 115.952 21.2145 116.331 21.4787C116.714 21.7429 117.215 21.875 117.833 21.875C118.536 21.875 119.094 21.7259 119.508 21.4276C119.925 21.125 120.134 20.7628 120.134 20.3409C120.134 20 120.015 19.7145 119.776 19.4844C119.538 19.25 119.171 19.0753 118.677 18.9602L117.04 18.5767C116.141 18.3636 115.481 18.0334 115.059 17.5859C114.641 17.1342 114.433 16.5696 114.433 15.892C114.433 15.3381 114.588 14.848 114.899 14.4219C115.214 13.9957 115.643 13.6612 116.184 13.4183C116.729 13.1754 117.347 13.054 118.038 13.054C119.009 13.054 119.772 13.267 120.326 13.6932C120.884 14.1193 121.281 14.6818 121.515 15.3807ZM125.064 23.1023C124.749 23.1023 124.478 22.9893 124.252 22.7635C124.026 22.5376 123.914 22.267 123.914 21.9517C123.914 21.6364 124.026 21.3658 124.252 21.1399C124.478 20.9141 124.749 20.8011 125.064 20.8011C125.379 20.8011 125.65 20.9141 125.876 21.1399C126.102 21.3658 126.215 21.6364 126.215 21.9517C126.215 22.1605 126.161 22.3523 126.055 22.527C125.953 22.7017 125.814 22.8423 125.639 22.9489C125.469 23.0511 125.277 23.1023 125.064 23.1023ZM129.126 23V9.90909H130.635V14.7415H130.763C130.873 14.571 131.027 14.3537 131.223 14.0895C131.423 13.821 131.709 13.5824 132.079 13.3736C132.454 13.1605 132.961 13.054 133.601 13.054C134.427 13.054 135.156 13.2607 135.787 13.674C136.417 14.0874 136.91 14.6733 137.263 15.4318C137.617 16.1903 137.794 17.0852 137.794 18.1165C137.794 19.1562 137.617 20.0575 137.263 20.8203C136.91 21.5788 136.42 22.1669 135.793 22.5845C135.167 22.9979 134.444 23.2045 133.626 23.2045C132.996 23.2045 132.491 23.1001 132.111 22.8913C131.732 22.6783 131.44 22.4375 131.236 22.169C131.031 21.8963 130.873 21.6705 130.763 21.4915H130.584V23H129.126ZM130.609 18.0909C130.609 18.8324 130.718 19.4865 130.935 20.0533C131.153 20.6158 131.47 21.0568 131.888 21.3764C132.305 21.6918 132.817 21.8494 133.422 21.8494C134.052 21.8494 134.579 21.6832 135.001 21.3509C135.427 21.0142 135.746 20.5625 135.959 19.9957C136.177 19.4247 136.285 18.7898 136.285 18.0909C136.285 17.4006 136.179 16.7784 135.966 16.2244C135.757 15.6662 135.439 15.2251 135.013 14.9013C134.591 14.5732 134.061 14.4091 133.422 14.4091C132.808 14.4091 132.292 14.5646 131.875 14.8757C131.457 15.1825 131.142 15.6129 130.929 16.1669C130.716 16.7166 130.609 17.358 130.609 18.0909ZM140.721 26.6818C140.466 26.6818 140.238 26.6605 140.037 26.6179C139.837 26.5795 139.699 26.5412 139.622 26.5028L140.006 25.1733C140.372 25.267 140.696 25.3011 140.977 25.2756C141.258 25.25 141.508 25.1243 141.725 24.8984C141.947 24.6768 142.149 24.3168 142.332 23.8182L142.613 23.0511L138.983 13.1818H140.619L143.329 21.0057H143.432L146.142 13.1818H147.778L143.611 24.4318C143.423 24.9389 143.191 25.3587 142.914 25.6911C142.637 26.0277 142.315 26.277 141.949 26.4389C141.586 26.6009 141.177 26.6818 140.721 26.6818Z" fill="black"/>
</svg>
