<svg width="30" height="30" viewBox="0 0 30 30" fill="none" xmlns="http://www.w3.org/2000/svg">
<path d="M13.988 5.36198C14.0147 5.26013 14.0614 5.16462 14.1254 5.08106C14.1894 4.99749 14.2695 4.92754 14.3609 4.87531C14.4523 4.82308 14.5532 4.78961 14.6577 4.77687C14.7622 4.76414 14.8682 4.77239 14.9695 4.80113C16.4631 5.20171 17.8249 5.9882 18.9184 7.08163C20.0118 8.17506 20.7983 9.53694 21.1989 11.0305C21.2276 11.1318 21.2359 11.2378 21.2231 11.3423C21.2104 11.4468 21.1769 11.5477 21.1247 11.6391C21.0725 11.7305 21.0025 11.8106 20.9189 11.8746C20.8354 11.9386 20.7399 11.9853 20.638 12.012C20.5697 12.0318 20.4989 12.0419 20.4277 12.042C20.2509 12.041 20.0793 11.9815 19.9399 11.8728C19.8004 11.7641 19.7008 11.6123 19.6565 11.4411C19.3234 10.2216 18.6779 9.10997 17.784 8.21601C16.89 7.32205 15.7784 6.67664 14.5589 6.34345C14.4561 6.3179 14.3596 6.27199 14.2749 6.20843C14.1902 6.14487 14.1191 6.06496 14.0659 5.97344C14.0127 5.88191 13.9783 5.78063 13.965 5.6756C13.9516 5.57057 13.9594 5.46392 13.988 5.36198ZM13.7276 9.43811C14.4055 9.62367 15.0234 9.98262 15.5204 10.4796C16.0174 10.9766 16.3763 11.5945 16.5619 12.2724C16.6045 12.4444 16.7037 12.5972 16.8436 12.7062C16.9834 12.8151 17.1558 12.874 17.3331 12.8733C17.401 12.8739 17.4686 12.8638 17.5334 12.8432C17.6361 12.8177 17.7327 12.7718 17.8174 12.7082C17.902 12.6446 17.9731 12.5647 18.0263 12.4732C18.0796 12.3817 18.1139 12.2804 18.1273 12.1754C18.1406 12.0703 18.1328 11.9637 18.1042 11.8617C17.8513 10.9098 17.3513 10.0417 16.6548 9.3452C15.9583 8.64873 15.0902 8.14871 14.1382 7.89579C14.0337 7.85771 13.9224 7.84182 13.8115 7.84911C13.7005 7.85641 13.5922 7.88673 13.4936 7.93815C13.3949 7.98958 13.3081 8.06098 13.2386 8.1478C13.1691 8.23463 13.1184 8.33498 13.0898 8.44246C13.0611 8.54995 13.0552 8.66222 13.0724 8.77212C13.0895 8.88202 13.1294 8.98714 13.1894 9.0808C13.2494 9.17446 13.3282 9.2546 13.4209 9.31611C13.5136 9.37763 13.618 9.41917 13.7276 9.43811ZM21.9901 19.1026C21.8129 20.4551 21.1506 21.6972 20.1264 22.598C19.1022 23.4988 17.7857 23.997 16.4217 24C8.46973 24 2 17.5303 2 9.57832C2.00301 8.21432 2.50123 6.89783 3.40203 5.8736C4.30283 4.84938 5.54492 4.18712 6.89736 4.00994C7.24213 3.97172 7.59011 4.04431 7.89083 4.21718C8.19156 4.39005 8.42941 4.65423 8.56988 4.97139L10.5829 9.66845C10.6873 9.91226 10.7292 10.1783 10.7047 10.4424C10.6802 10.7065 10.5902 10.9603 10.4427 11.1807L8.78019 13.7245C9.53301 15.2523 10.7734 16.4857 12.3055 17.2298L14.8193 15.5573C15.0395 15.4089 15.2939 15.319 15.5585 15.2962C15.8231 15.2734 16.0892 15.3185 16.3315 15.4271L21.0286 17.4301C21.3458 17.5706 21.6099 17.8084 21.7828 18.1092C21.9557 18.4099 22.0283 18.7579 21.9901 19.1026ZM20.3977 18.9023L15.7006 16.8993L13.1968 18.5718C12.9665 18.7241 12.7006 18.8143 12.4251 18.8336C12.1496 18.8529 11.8738 18.8007 11.6245 18.682C9.75861 17.7794 8.24933 16.2772 7.33803 14.4156C7.21787 14.1671 7.16396 13.8917 7.1815 13.6162C7.19905 13.3408 7.28746 13.0745 7.43818 12.8432L9.11069 10.2994L7.09766 5.60234C6.13116 5.72658 5.24308 6.19885 4.5997 6.93071C3.95632 7.66258 3.60176 8.60386 3.60241 9.57832C3.60506 12.9774 4.95651 16.2365 7.36002 18.64C9.76352 21.0435 13.0226 22.3949 16.4217 22.3976C17.3961 22.3982 18.3374 22.0437 19.0693 21.4003C19.8012 20.7569 20.2734 19.8688 20.3977 18.9023Z" fill="black"/>
</svg>
