<svg width="30" height="30" viewBox="0 0 30 30" fill="none" xmlns="http://www.w3.org/2000/svg">
<path d="M7.14286 9.42857H22.8571V8H7.14286V9.42857ZM23.5714 10.1429V20.1429H25V10.1429H23.5714ZM22.8571 20.8571H7.14286V22.2857H22.8571V20.8571ZM6.42857 20.1429V10.1429H5V20.1429H6.42857ZM7.14286 20.8571C6.95342 20.8571 6.77174 20.7819 6.63778 20.6479C6.50383 20.514 6.42857 20.3323 6.42857 20.1429H5C5 20.7112 5.22576 21.2562 5.62763 21.6581C6.02949 22.06 6.57454 22.2857 7.14286 22.2857V20.8571ZM23.5714 20.1429C23.5714 20.3323 23.4962 20.514 23.3622 20.6479C23.2283 20.7819 23.0466 20.8571 22.8571 20.8571V22.2857C23.4255 22.2857 23.9705 22.06 24.3724 21.6581C24.7742 21.2562 25 20.7112 25 20.1429H23.5714ZM22.8571 9.42857C23.0466 9.42857 23.2283 9.50383 23.3622 9.63778C23.4962 9.77174 23.5714 9.95342 23.5714 10.1429H25C25 9.57454 24.7742 9.02949 24.3724 8.62763C23.9705 8.22576 23.4255 8 22.8571 8V9.42857ZM7.14286 8C6.57454 8 6.02949 8.22576 5.62763 8.62763C5.22576 9.02949 5 9.57454 5 10.1429H6.42857C6.42857 9.95342 6.50383 9.77174 6.63778 9.63778C6.77174 9.50383 6.95342 9.42857 7.14286 9.42857V8ZM5.30714 10.73L13.78 16.5957L14.5936 15.4214L6.12071 9.55571L5.30714 10.73ZM16.22 16.5957L24.6921 10.73L23.8793 9.55571L15.4064 15.4214L16.22 16.5957ZM13.78 16.5957C14.1384 16.8439 14.564 16.9769 15 16.9769C15.436 16.9769 15.8616 16.8439 16.22 16.5957L15.4064 15.4214C15.287 15.5041 15.1452 15.5483 15 15.5483C14.8548 15.5483 14.713 15.5041 14.5936 15.4214L13.78 16.5957Z" fill="black"/>
</svg>
