<svg width="179" height="30" viewBox="0 0 179 30" fill="none" xmlns="http://www.w3.org/2000/svg">
<path d="M45.084 16.042V20.128H43.662V16.042H39.9V14.674H43.662V10.57H45.084V14.674H48.936V16.042H45.084ZM56.2541 18.67C56.2541 19.354 56.0081 19.9 55.5161 20.308C55.0361 20.704 54.4361 20.902 53.7161 20.902C53.1161 20.902 52.6121 20.86 52.2041 20.776C51.8081 20.68 51.4001 20.542 50.9801 20.362L50.5301 21.496C51.5381 21.976 52.6361 22.216 53.8241 22.216C54.5801 22.216 55.2821 22.066 55.9301 21.766C56.5781 21.466 57.0941 21.04 57.4781 20.488C57.8741 19.924 58.0721 19.27 58.0721 18.526C58.0721 17.878 57.8741 17.26 57.4781 16.672C57.0941 16.084 56.5241 15.706 55.7681 15.538V15.25C56.3801 15.082 56.8721 14.734 57.2441 14.206C57.6161 13.666 57.8021 13.084 57.8021 12.46C57.8021 11.392 57.4601 10.582 56.7761 10.03C56.1041 9.466 55.2461 9.184 54.2021 9.184C53.0021 9.184 51.9941 9.4 51.1781 9.832L51.5921 10.948C52.2761 10.636 53.0381 10.48 53.8781 10.48C54.5141 10.48 55.0241 10.654 55.4081 11.002C55.7921 11.35 55.9841 11.866 55.9841 12.55C55.9841 13.282 55.7381 13.84 55.2461 14.224C54.7541 14.596 54.1001 14.794 53.2841 14.818V16.006C54.1961 16.03 54.9161 16.27 55.4441 16.726C55.9841 17.182 56.2541 17.83 56.2541 18.67ZM65.0326 13.036C65.3566 12.436 65.6386 11.944 65.8786 11.56C66.1186 11.164 66.2746 10.918 66.3466 10.822L66.1846 10.534C66.1366 10.558 66.0226 10.6 65.8426 10.66C65.6626 10.708 65.4106 10.756 65.0866 10.804C64.7746 10.852 64.4206 10.876 64.0246 10.876H59.5966V9.4H68.0566V10.84L62.1346 22H60.2086L65.0326 13.036ZM72.8856 20.902C72.2976 20.902 71.7816 20.854 71.3376 20.758C70.9056 20.65 70.4736 20.5 70.0416 20.308L69.5916 21.424C70.6476 21.952 71.7456 22.216 72.8856 22.216C73.7976 22.216 74.6136 22.066 75.3336 21.766C76.0536 21.454 76.6236 20.998 77.0436 20.398C77.4636 19.786 77.6736 19.042 77.6736 18.166C77.6736 17.038 77.4096 16.186 76.8816 15.61C76.3656 15.034 75.7176 14.656 74.9376 14.476C74.1576 14.284 73.2036 14.17 72.0756 14.134V10.75H76.8276V9.4H70.1856V15.394L71.9856 15.466C73.2216 15.514 74.1396 15.748 74.7396 16.168C75.3396 16.576 75.6396 17.248 75.6396 18.184C75.6396 18.964 75.3876 19.612 74.8836 20.128C74.3796 20.644 73.7136 20.902 72.8856 20.902ZM84.6297 20.506C84.1377 20.506 83.6337 20.536 83.1177 20.596C82.6017 20.656 82.2717 20.698 82.1277 20.722L82.0017 20.434C82.1097 20.338 82.3317 20.128 82.6677 19.804C83.0037 19.468 83.3997 19.072 83.8557 18.616L84.5037 17.968C85.2357 17.248 85.8057 16.648 86.2137 16.168C86.6337 15.688 86.9817 15.154 87.2577 14.566C87.5457 13.966 87.6897 13.318 87.6897 12.622C87.6897 11.482 87.3297 10.624 86.6097 10.048C85.9017 9.472 84.9717 9.184 83.8197 9.184C82.6077 9.184 81.3837 9.448 80.1477 9.976L80.5977 11.092C81.2337 10.876 81.7557 10.726 82.1637 10.642C82.5717 10.558 83.0697 10.516 83.6577 10.516C84.2817 10.516 84.7917 10.708 85.1877 11.092C85.5957 11.476 85.7997 12.01 85.7997 12.694C85.7997 13.246 85.6977 13.738 85.4937 14.17C85.2897 14.602 84.9777 15.058 84.5577 15.538C84.1497 16.006 83.4477 16.744 82.4517 17.752C80.9637 19.276 80.0337 20.236 79.6617 20.632V22H88.0677V20.506H84.6297ZM93.2586 20.902C92.6706 20.902 92.1546 20.854 91.7106 20.758C91.2786 20.65 90.8466 20.5 90.4146 20.308L89.9646 21.424C91.0206 21.952 92.1186 22.216 93.2586 22.216C94.1706 22.216 94.9866 22.066 95.7066 21.766C96.4266 21.454 96.9966 20.998 97.4166 20.398C97.8366 19.786 98.0466 19.042 98.0466 18.166C98.0466 17.038 97.7826 16.186 97.2546 15.61C96.7386 15.034 96.0906 14.656 95.3106 14.476C94.5306 14.284 93.5766 14.17 92.4486 14.134V10.75H97.2006V9.4H90.5586V15.394L92.3586 15.466C93.5946 15.514 94.5126 15.748 95.1126 16.168C95.7126 16.576 96.0126 17.248 96.0126 18.184C96.0126 18.964 95.7606 19.612 95.2566 20.128C94.7526 20.644 94.0866 20.902 93.2586 20.902ZM107.631 15.664C108.159 14.608 109.095 14.08 110.439 14.08C111.759 14.08 112.779 14.44 113.499 15.16C114.231 15.88 114.597 16.876 114.597 18.148C114.597 19.396 114.219 20.386 113.463 21.118C112.707 21.85 111.639 22.216 110.259 22.216C108.435 22.216 107.175 21.676 106.479 20.596C105.783 19.504 105.435 18.004 105.435 16.096C105.435 14.956 105.651 13.858 106.083 12.802C106.527 11.734 107.187 10.864 108.063 10.192C108.939 9.52 109.995 9.184 111.231 9.184C112.155 9.184 112.929 9.328 113.553 9.616L113.211 10.84C112.659 10.624 111.981 10.516 111.177 10.516C110.277 10.516 109.545 10.792 108.981 11.344C108.417 11.884 108.009 12.544 107.757 13.324C107.505 14.104 107.367 14.884 107.343 15.664H107.631ZM110.277 21.046C111.177 21.046 111.819 20.782 112.203 20.254C112.599 19.714 112.797 19.012 112.797 18.148C112.797 17.308 112.587 16.618 112.167 16.078C111.759 15.538 111.129 15.268 110.277 15.268C109.341 15.268 108.675 15.52 108.279 16.024C107.883 16.516 107.685 17.224 107.685 18.148C107.685 19 107.883 19.696 108.279 20.236C108.675 20.776 109.341 21.046 110.277 21.046ZM119.784 9.832C119.784 9.628 119.712 9.472 119.568 9.364C119.424 9.244 119.244 9.184 119.028 9.184C118.968 9.184 118.878 9.196 118.758 9.22L115.68 9.886L115.734 10.822H118.038V22H119.784V9.832ZM128.008 18.67C128.008 19.354 127.762 19.9 127.27 20.308C126.79 20.704 126.19 20.902 125.47 20.902C124.87 20.902 124.366 20.86 123.958 20.776C123.562 20.68 123.154 20.542 122.734 20.362L122.284 21.496C123.292 21.976 124.39 22.216 125.578 22.216C126.334 22.216 127.036 22.066 127.684 21.766C128.332 21.466 128.848 21.04 129.232 20.488C129.628 19.924 129.826 19.27 129.826 18.526C129.826 17.878 129.628 17.26 129.232 16.672C128.848 16.084 128.278 15.706 127.522 15.538V15.25C128.134 15.082 128.626 14.734 128.998 14.206C129.37 13.666 129.556 13.084 129.556 12.46C129.556 11.392 129.214 10.582 128.53 10.03C127.858 9.466 127 9.184 125.956 9.184C124.756 9.184 123.748 9.4 122.932 9.832L123.346 10.948C124.03 10.636 124.792 10.48 125.632 10.48C126.268 10.48 126.778 10.654 127.162 11.002C127.546 11.35 127.738 11.866 127.738 12.55C127.738 13.282 127.492 13.84 127 14.224C126.508 14.596 125.854 14.794 125.038 14.818V16.006C125.95 16.03 126.67 16.27 127.198 16.726C127.738 17.182 128.008 17.83 128.008 18.67ZM140.315 9.832C140.315 9.628 140.243 9.472 140.099 9.364C139.955 9.244 139.775 9.184 139.559 9.184C139.499 9.184 139.409 9.196 139.289 9.22L136.211 9.886L136.265 10.822H138.569V22H140.315V9.832ZM146.397 20.902C145.809 20.902 145.293 20.854 144.849 20.758C144.417 20.65 143.985 20.5 143.553 20.308L143.103 21.424C144.159 21.952 145.257 22.216 146.397 22.216C147.309 22.216 148.125 22.066 148.845 21.766C149.565 21.454 150.135 20.998 150.555 20.398C150.975 19.786 151.185 19.042 151.185 18.166C151.185 17.038 150.921 16.186 150.393 15.61C149.877 15.034 149.229 14.656 148.449 14.476C147.669 14.284 146.715 14.17 145.587 14.134V10.75H150.339V9.4H143.697V15.394L145.497 15.466C146.733 15.514 147.651 15.748 148.251 16.168C148.851 16.576 149.151 17.248 149.151 18.184C149.151 18.964 148.899 19.612 148.395 20.128C147.891 20.644 147.225 20.902 146.397 20.902ZM168.276 15.718C168.276 14.386 168.138 13.246 167.862 12.298C167.598 11.35 167.106 10.594 166.386 10.03C165.678 9.466 164.682 9.184 163.398 9.184C162.114 9.184 161.118 9.466 160.41 10.03C159.702 10.594 159.216 11.35 158.952 12.298C158.7 13.246 158.574 14.386 158.574 15.718C158.574 17.698 158.928 19.276 159.636 20.452C160.344 21.628 161.598 22.216 163.398 22.216C165.198 22.216 166.458 21.628 167.178 20.452C167.91 19.264 168.276 17.686 168.276 15.718ZM163.416 10.354C164.604 10.354 165.384 10.858 165.756 11.866C166.14 12.874 166.332 14.128 166.332 15.628C166.332 17.452 166.116 18.814 165.684 19.714C165.264 20.602 164.508 21.046 163.416 21.046C162.324 21.046 161.562 20.596 161.13 19.696C160.698 18.796 160.482 17.44 160.482 15.628C160.482 14.128 160.674 12.874 161.058 11.866C161.442 10.858 162.228 10.354 163.416 10.354ZM175.335 13.036C175.659 12.436 175.941 11.944 176.181 11.56C176.421 11.164 176.577 10.918 176.649 10.822L176.487 10.534C176.439 10.558 176.325 10.6 176.145 10.66C175.965 10.708 175.713 10.756 175.389 10.804C175.077 10.852 174.723 10.876 174.327 10.876H169.899V9.4H178.359V10.84L172.437 22H170.511L175.335 13.036Z" fill="black"/>
<path d="M13.988 5.36198C14.0147 5.26013 14.0614 5.16462 14.1254 5.08106C14.1894 4.99749 14.2695 4.92754 14.3609 4.87531C14.4523 4.82308 14.5532 4.78961 14.6577 4.77687C14.7622 4.76414 14.8682 4.77239 14.9695 4.80113C16.4631 5.20171 17.8249 5.9882 18.9184 7.08163C20.0118 8.17506 20.7983 9.53694 21.1989 11.0305C21.2276 11.1318 21.2359 11.2378 21.2231 11.3423C21.2104 11.4468 21.1769 11.5477 21.1247 11.6391C21.0725 11.7305 21.0025 11.8106 20.9189 11.8746C20.8354 11.9386 20.7399 11.9853 20.638 12.012C20.5697 12.0318 20.4989 12.0419 20.4277 12.042C20.2509 12.041 20.0793 11.9815 19.9399 11.8728C19.8004 11.7641 19.7008 11.6123 19.6565 11.4411C19.3234 10.2216 18.6779 9.10997 17.784 8.21601C16.89 7.32205 15.7784 6.67664 14.5589 6.34345C14.4561 6.3179 14.3596 6.27199 14.2749 6.20843C14.1902 6.14487 14.1191 6.06496 14.0659 5.97344C14.0127 5.88191 13.9783 5.78063 13.965 5.6756C13.9516 5.57057 13.9594 5.46392 13.988 5.36198ZM13.7276 9.43811C14.4055 9.62367 15.0234 9.98262 15.5204 10.4796C16.0174 10.9766 16.3763 11.5945 16.5619 12.2724C16.6045 12.4444 16.7037 12.5972 16.8436 12.7062C16.9834 12.8151 17.1558 12.874 17.3331 12.8733C17.401 12.8739 17.4686 12.8638 17.5334 12.8432C17.6361 12.8177 17.7327 12.7718 17.8174 12.7082C17.902 12.6446 17.9731 12.5647 18.0263 12.4732C18.0796 12.3817 18.1139 12.2804 18.1273 12.1754C18.1406 12.0703 18.1328 11.9637 18.1042 11.8617C17.8513 10.9098 17.3513 10.0417 16.6548 9.3452C15.9583 8.64873 15.0902 8.14871 14.1382 7.89579C14.0337 7.85771 13.9224 7.84182 13.8115 7.84911C13.7005 7.85641 13.5922 7.88673 13.4936 7.93815C13.3949 7.98958 13.3081 8.06098 13.2386 8.1478C13.1691 8.23463 13.1184 8.33498 13.0898 8.44246C13.0611 8.54995 13.0552 8.66222 13.0724 8.77212C13.0895 8.88202 13.1294 8.98714 13.1894 9.0808C13.2494 9.17446 13.3282 9.2546 13.4209 9.31611C13.5136 9.37763 13.618 9.41917 13.7276 9.43811ZM21.9901 19.1026C21.8129 20.4551 21.1506 21.6972 20.1264 22.598C19.1022 23.4988 17.7857 23.997 16.4217 24C8.46973 24 2 17.5303 2 9.57832C2.00301 8.21432 2.50123 6.89783 3.40203 5.8736C4.30283 4.84938 5.54492 4.18712 6.89736 4.00994C7.24213 3.97172 7.59011 4.04431 7.89083 4.21718C8.19156 4.39005 8.42941 4.65423 8.56988 4.97139L10.5829 9.66845C10.6873 9.91226 10.7292 10.1783 10.7047 10.4424C10.6802 10.7065 10.5902 10.9603 10.4427 11.1807L8.78019 13.7245C9.53301 15.2523 10.7734 16.4857 12.3055 17.2298L14.8193 15.5573C15.0395 15.4089 15.2939 15.319 15.5585 15.2962C15.8231 15.2734 16.0892 15.3185 16.3315 15.4271L21.0286 17.4301C21.3458 17.5706 21.6099 17.8084 21.7828 18.1092C21.9557 18.4099 22.0283 18.7579 21.9901 19.1026ZM20.3977 18.9023L15.7006 16.8993L13.1968 18.5718C12.9665 18.7241 12.7006 18.8143 12.4251 18.8336C12.1496 18.8529 11.8738 18.8007 11.6245 18.682C9.75861 17.7794 8.24933 16.2772 7.33803 14.4156C7.21787 14.1671 7.16396 13.8917 7.1815 13.6162C7.19905 13.3408 7.28746 13.0745 7.43818 12.8432L9.11069 10.2994L7.09766 5.60234C6.13116 5.72658 5.24308 6.19885 4.5997 6.93071C3.95632 7.66258 3.60176 8.60386 3.60241 9.57832C3.60506 12.9774 4.95651 16.2365 7.36002 18.64C9.76352 21.0435 13.0226 22.3949 16.4217 22.3976C17.3961 22.3982 18.3374 22.0437 19.0693 21.4003C19.8012 20.7569 20.2734 19.8688 20.3977 18.9023Z" fill="black"/>
</svg>
